<?xml version="1.0" encoding="iso-8859-1"?>
<!-- Generator: Adobe Illustrator 19.0.0, SVG Export Plug-In . SVG Version: 6.00 Build 0)  -->
<svg version="1.1" id="Layer_1" xmlns="http://www.w3.org/2000/svg" xmlns:xlink="http://www.w3.org/1999/xlink" x="0px" y="0px"
	 viewBox="0 0 310.086 310.086" style="enable-background:new 0 0 310.086 310.086;" xml:space="preserve">
<g>
	<g>
		<path style="fill:#8CD5EF;" d="M260.586,235.729H198.4c-9.664,0-17.5-7.835-17.5-17.5s7.836-17.5,17.5-17.5h62.186
			c7.996,0,14.5-6.505,14.5-14.5v-79.186c0-7.995-6.504-14.5-14.5-14.5H198.4c-9.664,0-17.5-7.835-17.5-17.5s7.836-17.5,17.5-17.5
			h62.186c27.295,0,49.5,22.206,49.5,49.5v79.186C310.086,213.523,287.881,235.729,260.586,235.729z"/>
		<path style="fill:#00B3E3;" d="M198.4,57.543c-9.664,0-17.5,7.835-17.5,17.5s7.836,17.5,17.5,17.5h47.094v-35H198.4z
			 M180.9,218.229c0,9.665,7.836,17.5,17.5,17.5h47.094v-35H198.4C188.736,200.729,180.9,208.564,180.9,218.229z"/>
	</g>
	<path style="fill:#8CD5EF;" d="M233.988,271.44c0,11-9,20-20,20H20c-11,0-20-9-20-20V38.646c0-11,9-20,20-20h193.988
		c11,0,20,9,20,20V271.44z"/>
	<rect x="25" y="72.354" style="fill:#B3874F;" width="183.988" height="186.085"/>
	<path style="fill:#00B3E3;" d="M0,258.44v13c0,11,9,20,20,20h193.988c11,0,20-9,20-20v-13H0z"/>
	<path style="fill:#FFFFFF;" d="M176.322,39.688c-4.852,0-9.453,1.065-13.592,2.964c-3.492-3.068-8.057-4.942-13.069-4.942
		c-6.088,0-11.529,2.749-15.167,7.067c-5.061-3.218-11.06-5.089-17.5-5.089c-6.037,0-11.688,1.645-16.54,4.5
		c-4.19-4.011-9.868-6.479-16.126-6.479c-5.199,0-9.999,1.702-13.878,4.577c-3.927-1.672-8.247-2.599-12.784-2.599
		C39.625,39.688,25,54.313,25,72.354s14.625,32.666,32.666,32.666c13.156,0,24.487-7.78,29.664-18.988
		c5.177,11.208,16.509,18.988,29.664,18.988s24.487-7.78,29.664-18.988c5.177,11.208,16.508,18.988,29.664,18.988
		c18.041,0,32.666-14.625,32.666-32.666S194.363,39.688,176.322,39.688z"/>
	<g>
		<circle style="fill:#F2D383;" cx="49.187" cy="218.232" r="8.479"/>
		<circle style="fill:#F2D383;" cx="77.187" cy="146.637" r="8.479"/>
		<circle style="fill:#F2D383;" cx="141.182" cy="241.637" r="8.478"/>
		<circle style="fill:#F2D383;" cx="184.801" cy="196.637" r="8.479"/>
		<circle style="fill:#F2D383;" cx="115.994" cy="175.637" r="8.478"/>
	</g>
</g>
<g>
</g>
<g>
</g>
<g>
</g>
<g>
</g>
<g>
</g>
<g>
</g>
<g>
</g>
<g>
</g>
<g>
</g>
<g>
</g>
<g>
</g>
<g>
</g>
<g>
</g>
<g>
</g>
<g>
</g>
</svg>
