<?xml version="1.0" encoding="iso-8859-1"?>
<!-- Generator: Adobe Illustrator 19.0.0, SVG Export Plug-In . SVG Version: 6.00 Build 0)  -->
<svg version="1.1" id="Layer_1" xmlns="http://www.w3.org/2000/svg" xmlns:xlink="http://www.w3.org/1999/xlink" x="0px" y="0px"
	 viewBox="0 0 343.484 343.484" style="enable-background:new 0 0 343.484 343.484;" xml:space="preserve">
<g>
	
		<rect x="49.926" y="78.743" transform="matrix(-0.7071 0.7071 -0.7071 -0.7071 414.6192 171.7448)" style="fill:#F2D383;" width="243.628" height="185.999"/>
	<polygon style="fill:#D9A460;" points="8.024,203.938 0,233.883 29.945,225.858 21.921,255.803 51.865,247.779 43.841,277.723 
		73.785,269.699 65.762,299.643 95.705,291.619 87.682,321.564 117.626,313.539 109.602,343.484 139.547,335.46 151.367,323.639 
		19.845,192.117 	"/>
	<polygon style="fill:#D9A460;" points="203.938,8.024 233.883,0 225.859,29.944 255.803,21.921 247.779,51.865 277.723,43.841 
		269.699,73.785 299.644,65.761 291.619,95.705 321.565,87.681 313.54,117.625 343.484,109.602 335.461,139.546 323.64,151.366 
		192.117,19.844 	"/>
	<g>
		<circle style="fill:#FFFFFF;" cx="171.742" cy="171.742" r="63.667"/>
		<path style="fill:#E94F3D;" d="M153.109,110.86c-4.123,21.367,2.086,44.335,18.633,60.882c0.012,0.012,0.023,0.022,0.035,0.034
			c-2.675-14.018,1.41-29.071,12.262-39.922c6.783-6.783,15.211-10.912,23.998-12.41
			C191.779,108.135,171.438,105.267,153.109,110.86z"/>
		<path style="fill:#E94F3D;" d="M110.861,190.375c21.367,4.124,44.334-2.086,60.881-18.633c0.012-0.012,0.022-0.024,0.034-0.036
			c-14.019,2.675-29.071-1.41-39.923-12.261c-6.783-6.783-10.91-15.21-12.408-23.998
			C108.135,151.705,105.268,172.047,110.861,190.375z"/>
		<path style="fill:#E94F3D;" d="M190.376,232.623c4.123-21.367-2.087-44.335-18.634-60.881c-0.012-0.012-0.023-0.022-0.035-0.034
			c2.676,14.018-1.41,29.071-12.262,39.922c-6.782,6.783-15.21,10.911-23.998,12.409
			C151.705,235.349,172.047,238.216,190.376,232.623z"/>
		<path style="fill:#E94F3D;" d="M232.624,153.109c-21.367-4.123-44.335,2.087-60.882,18.633c-0.012,0.012-0.022,0.023-0.033,0.035
			c14.018-2.675,29.07,1.411,39.922,12.262c6.783,6.783,10.912,15.21,12.409,23.998C235.35,191.78,238.217,171.438,232.624,153.109z
			"/>
	</g>
</g>
<g>
</g>
<g>
</g>
<g>
</g>
<g>
</g>
<g>
</g>
<g>
</g>
<g>
</g>
<g>
</g>
<g>
</g>
<g>
</g>
<g>
</g>
<g>
</g>
<g>
</g>
<g>
</g>
<g>
</g>
</svg>
