<?xml version="1.0" encoding="iso-8859-1"?>
<!-- Generator: Adobe Illustrator 19.0.0, SVG Export Plug-In . SVG Version: 6.00 Build 0)  -->
<svg version="1.1" id="Layer_1" xmlns="http://www.w3.org/2000/svg" xmlns:xlink="http://www.w3.org/1999/xlink" x="0px" y="0px"
	 viewBox="0 0 365.989 365.989" style="enable-background:new 0 0 365.989 365.989;" xml:space="preserve">
<g>
	<path style="fill:#712D3D;" d="M132.398,53.667h-5v160.322h15.135V63.802C142.533,58.205,137.995,53.667,132.398,53.667z"/>
	<path style="fill:#B3874F;" d="M130.398,35V24.333h-4.495c2.759-2.566,4.495-6.216,4.495-10.281C130.398,6.291,124.107,0,116.346,0
		s-14.052,6.291-14.052,14.052c0,4.065,1.736,7.715,4.495,10.281h-4.495v189.656h28.103V35H130.398z"/>
	<path style="fill:#D9A460;" d="M102.294,213.989h160.065c4.4,0,8,3.6,8,8v12.646c0,4.4-3.6,8-8,8H102.294V213.989z"/>
	<g>
		<rect x="232.025" y="242.635" style="fill:#B3874F;" width="28.104" height="123.354"/>
		<rect x="232.025" y="242.635" style="fill:#997443;" width="28.104" height="13.031"/>
		<rect x="232.025" y="288.667" style="fill:#997443;" width="28.104" height="9.031"/>
		<g>
			<path style="fill:#D9A460;" d="M260.128,344.667c3.682,0,6.666-2.985,6.666-6.667s-2.984-6.667-6.666-6.667h-28.104
				c-3.682,0-6.666,2.985-6.666,6.667s2.984,6.667,6.666,6.667H260.128z"/>
		</g>
	</g>
	<g>
		<rect x="102.294" y="242.635" style="fill:#B3874F;" width="28.104" height="123.354"/>
		<rect x="102.294" y="242.635" style="fill:#997443;" width="28.104" height="13.031"/>
		<rect x="102.294" y="288.667" style="fill:#997443;" width="28.104" height="9.031"/>
		<g>
			<path style="fill:#D9A460;" d="M130.398,344.667c3.682,0,6.666-2.985,6.666-6.667s-2.984-6.667-6.666-6.667h-28.103
				c-3.682,0-6.666,2.985-6.666,6.667s2.984,6.667,6.666,6.667H130.398z"/>
		</g>
	</g>
	<rect x="102.294" y="274.666" style="fill:#D9A460;" width="157.834" height="14"/>
</g>
<g>
</g>
<g>
</g>
<g>
</g>
<g>
</g>
<g>
</g>
<g>
</g>
<g>
</g>
<g>
</g>
<g>
</g>
<g>
</g>
<g>
</g>
<g>
</g>
<g>
</g>
<g>
</g>
<g>
</g>
</svg>
