<?xml version="1.0" encoding="iso-8859-1"?>
<!-- Generator: Adobe Illustrator 19.0.0, SVG Export Plug-In . SVG Version: 6.00 Build 0)  -->
<svg version="1.1" id="Layer_1" xmlns="http://www.w3.org/2000/svg" xmlns:xlink="http://www.w3.org/1999/xlink" x="0px" y="0px"
	 viewBox="0 0 355.656 355.656" style="enable-background:new 0 0 355.656 355.656;" xml:space="preserve">
<g>
	<g>
		<path style="fill:#F2D383;" d="M27.809,231.374L72.14,93.557c2.905-9.025,13.038-16.41,22.518-16.41H261
			c9.479,0,19.612,7.384,22.516,16.41l44.333,137.818H27.809V231.374z"/>
		<path style="fill:#D9A460;" d="M283.515,93.557c-2.903-9.025-13.036-16.41-22.516-16.41H94.657c-9.48,0-19.612,7.384-22.518,16.41
			l-9.897,30.768h231.17L283.515,93.557z"/>
		<path style="fill:#5A3C3D;" d="M117.438,77.147v43.718c0,7.761,6.294,14.054,14.056,14.054c7.76,0,14.055-6.292,14.055-14.054
			v-10.76c0-7.762,6.291-14.054,14.051-14.054c7.765,0,14.057,6.292,14.057,14.054v55.129c0,7.762,6.294,14.054,14.056,14.054
			c7.763,0,14.054-6.292,14.054-14.054V123.61c0-7.762,6.292-14.054,14.057-14.054c7.76,0,14.053,6.292,14.053,14.054v16.688
			c0,7.762,6.292,14.055,14.053,14.055c7.764,0,14.056-6.293,14.056-14.055V77.147H117.438z"/>
	</g>
	<polygon style="fill:#00B3E3;" points="327.848,261.272 27.809,261.272 0,228.472 355.656,228.472 	"/>
	<rect x="27.809" y="261.272" style="fill:#0091B8;" width="300.039" height="17.237"/>
</g>
<g>
</g>
<g>
</g>
<g>
</g>
<g>
</g>
<g>
</g>
<g>
</g>
<g>
</g>
<g>
</g>
<g>
</g>
<g>
</g>
<g>
</g>
<g>
</g>
<g>
</g>
<g>
</g>
<g>
</g>
</svg>
