<?xml version="1.0" encoding="iso-8859-1"?>
<!-- Generator: Adobe Illustrator 19.0.0, SVG Export Plug-In . SVG Version: 6.00 Build 0)  -->
<svg version="1.1" id="Layer_1" xmlns="http://www.w3.org/2000/svg" xmlns:xlink="http://www.w3.org/1999/xlink" x="0px" y="0px"
	 viewBox="0 0 341.022 341.022" style="enable-background:new 0 0 341.022 341.022;" xml:space="preserve">
<g>
	<path style="fill:#B3874F;" d="M90.666,208.656l-50.368-78.438C-9.05,158.503-4.751,228.88,9.681,260.962
		c3.894,10.658,14.496,17.885,26.367,16.992c14.319-1.08,25.053-13.561,23.974-27.879c-0.065-0.873-0.175-1.729-0.322-2.572
		C58.041,228.636,74.896,215.925,90.666,208.656z"/>
	<path style="fill:#B3874F;" d="M250.357,208.656l50.368-78.438c49.348,28.285,45.049,98.662,30.616,130.744
		c-3.894,10.658-14.496,17.885-26.367,16.992c-14.319-1.08-25.053-13.561-23.974-27.879c0.065-0.873,0.175-1.729,0.322-2.572
		C282.982,228.636,266.126,215.925,250.357,208.656z"/>
	<path style="fill:#D9A460;" d="M120.011,79.142c-22.47,3.973-54.646,20.061-81.692,42.451c-7.485,6.195-9.337,13.164-8.308,17.797
		c4.5,20.25,26,57.75,43.96,73.773c4.938,4.406,11.2,3.162,14.207,1.477c10.308-5.775,16.35-12.951,31.833-14.5V79.142z"/>
	<path style="fill:#D9A460;" d="M221.011,79.142c22.47,3.973,54.646,20.061,81.692,42.451c7.485,6.195,9.337,13.164,8.308,17.797
		c-4.5,20.25-26,57.75-43.96,73.773c-4.938,4.406-11.2,3.162-14.207,1.477c-10.308-5.775-16.35-12.951-31.833-14.5L221.011,79.142
		L221.011,79.142z"/>
	<path style="fill:#B3874F;" d="M229.666,78.507c-11.105-8.32-33.371-15.514-59.154-15.514c-25.777,0-48.038,7.189-59.146,15.508
		c-5.991,4.318-9.896,11.354-9.896,19.305c0,0.686,0.035,1.361,0.093,2.031h-0.093v79.975c0,13.137,10.649,23.785,23.786,23.785
		c2.521,0,4.95-0.395,7.232-1.123v0.002c9.015-2.744,29.032-5.549,38.024-5.549s29.01,2.805,38.023,5.549l0.001-0.002
		c2.28,0.729,4.71,1.123,7.232,1.123c13.136,0,23.786-10.648,23.786-23.785V97.806C239.553,89.859,235.652,82.826,229.666,78.507z"
		/>
</g>
<g>
</g>
<g>
</g>
<g>
</g>
<g>
</g>
<g>
</g>
<g>
</g>
<g>
</g>
<g>
</g>
<g>
</g>
<g>
</g>
<g>
</g>
<g>
</g>
<g>
</g>
<g>
</g>
<g>
</g>
</svg>
