<?xml version="1.0" encoding="iso-8859-1"?>
<!-- Generator: Adobe Illustrator 19.0.0, SVG Export Plug-In . SVG Version: 6.00 Build 0)  -->
<svg version="1.1" id="Layer_1" xmlns="http://www.w3.org/2000/svg" xmlns:xlink="http://www.w3.org/1999/xlink" x="0px" y="0px"
	 viewBox="0 0 385.355 385.355" style="enable-background:new 0 0 385.355 385.355;" xml:space="preserve">
<g>
	<g>
		<path style="fill:#333E48;" d="M30.072,120.921C11.514,139.229,0,164.66,0,192.788c0,28.128,11.514,53.561,30.072,71.867
			l70.89-71.867L30.072,120.921z"/>
		<path style="fill:#5C6670;" d="M53.839,194.788h-39.03c-1.105,0-2-0.896-2-2c0-1.105,0.895-2,2-2h39.03c1.104,0,2,0.895,2,2
			C55.839,193.892,54.943,194.788,53.839,194.788z"/>
		<path style="fill:#5C6670;" d="M57.021,176.515c-0.467,0-0.936-0.162-1.314-0.493L26.31,150.345
			c-0.832-0.727-0.918-1.99-0.19-2.822c0.726-0.831,1.991-0.917,2.821-0.19l29.396,25.677c0.832,0.727,0.918,1.99,0.19,2.822
			C58.134,176.283,57.579,176.515,57.021,176.515z"/>
		<path style="fill:#5C6670;" d="M27.627,238.738c-0.558,0-1.112-0.231-1.507-0.684c-0.728-0.832-0.642-2.096,0.19-2.822
			l29.397-25.676c0.832-0.727,2.097-0.641,2.821,0.19c0.727,0.832,0.642,2.096-0.19,2.822l-29.396,25.676
			C28.563,238.575,28.094,238.738,27.627,238.738z"/>
	</g>
	<ellipse style="fill:#333E48;" cx="225.663" cy="169.799" rx="111.771" ry="94.5"/>
	<ellipse style="fill:#333E48;" cx="225.663" cy="252.853" rx="79.842" ry="57.203"/>
	<path style="fill:#5C6670;" d="M385.355,192.788c0,0-58.023-97.333-159.693-97.333c-101.668,0-159.692,97.333-159.692,97.333
		s58.024,97.333,159.692,97.333C327.332,290.121,385.355,192.788,385.355,192.788z"/>
	<g>
		<path style="fill:#333E48;" d="M272.661,137.945c-7.886,0-14.301-6.415-14.301-14.301c0-7.885,6.415-14.301,14.301-14.301
			c0.553,0,1,0.448,1,1c0,0.553-0.447,1-1,1c-6.782,0-12.301,5.518-12.301,12.301c0,6.782,5.519,12.301,12.301,12.301
			c0.553,0,1,0.447,1,1C273.661,137.497,273.214,137.945,272.661,137.945z"/>
		<path style="fill:#333E48;" d="M120.543,197.399c-7.886,0-14.301-6.415-14.301-14.301c0-7.885,6.415-14.301,14.301-14.301
			c0.553,0,1,0.448,1,1c0,0.553-0.447,1-1,1c-6.782,0-12.301,5.519-12.301,12.301c0,6.782,5.518,12.301,12.301,12.301
			c0.553,0,1,0.447,1,1C121.543,196.951,121.096,197.399,120.543,197.399z"/>
		<path style="fill:#333E48;" d="M199.328,144.945c-7.886,0-14.301-6.415-14.301-14.301c0-7.885,6.415-14.301,14.301-14.301
			c0.553,0,1,0.448,1,1c0,0.553-0.447,1-1,1c-6.782,0-12.301,5.518-12.301,12.301c0,6.782,5.519,12.301,12.301,12.301
			c0.553,0,1,0.447,1,1C200.328,144.497,199.881,144.945,199.328,144.945z"/>
		<path style="fill:#333E48;" d="M157.985,258.323c-7.886,0-14.301-6.415-14.301-14.301c0-7.885,6.415-14.301,14.301-14.301
			c0.553,0,1,0.448,1,1c0,0.553-0.447,1-1,1c-6.782,0-12.301,5.519-12.301,12.301c0,6.782,5.519,12.301,12.301,12.301
			c0.553,0,1,0.447,1,1C158.985,257.875,158.538,258.323,157.985,258.323z"/>
		<path style="fill:#333E48;" d="M222.385,278.598c-7.886,0-14.301-6.415-14.301-14.301c0-7.885,6.415-14.301,14.301-14.301
			c0.553,0,1,0.448,1,1c0,0.553-0.447,1-1,1c-6.782,0-12.301,5.519-12.301,12.301s5.518,12.301,12.301,12.301c0.553,0,1,0.447,1,1
			C223.385,278.149,222.938,278.598,222.385,278.598z"/>
		<path style="fill:#333E48;" d="M299.155,247.022c-7.886,0-14.301-6.415-14.301-14.3c0-7.886,6.415-14.301,14.301-14.301
			c0.553,0,1,0.447,1,1c0,0.552-0.447,1-1,1c-6.782,0-12.301,5.518-12.301,12.301c0,6.782,5.518,12.3,12.301,12.3
			c0.553,0,1,0.448,1,1C300.155,246.575,299.708,247.022,299.155,247.022z"/>
		<path style="fill:#333E48;" d="M240.963,214.699c-7.886,0-14.301-6.415-14.301-14.3c0-7.886,6.415-14.301,14.301-14.301
			c0.553,0,1,0.447,1,1c0,0.552-0.447,1-1,1c-6.782,0-12.301,5.518-12.301,12.301c0,6.782,5.519,12.3,12.301,12.3
			c0.553,0,1,0.448,1,1C241.963,214.252,241.516,214.699,240.963,214.699z"/>
	</g>
	<circle style="fill:#333E48;" cx="333.506" cy="173.525" r="14.813"/>
	<g>
		<path style="fill:#FF8189;" d="M178.871,145.953c-6.645,31.17-37.542,72.826-55.072,84.768
			C130.443,199.552,161.34,157.896,178.871,145.953z"/>
		<path style="fill:#C4636A;" d="M178.871,145.953c-6.645,31.17-37.542,72.826-55.072,84.768L178.871,145.953z"/>
	</g>
	<g>
		<path style="fill:#FF8189;" d="M239.9,145.953c-6.645,31.17-37.542,72.826-55.072,84.768
			C191.473,199.552,222.369,157.896,239.9,145.953z"/>
		<path style="fill:#C4636A;" d="M239.9,145.953c-6.645,31.17-37.542,72.826-55.072,84.768L239.9,145.953z"/>
	</g>
	<g>
		<path style="fill:#FF8189;" d="M300.93,145.953c-6.645,31.17-37.542,72.826-55.072,84.768
			C252.502,199.552,283.398,157.896,300.93,145.953z"/>
		<path style="fill:#C4636A;" d="M300.93,145.953c-6.645,31.17-37.542,72.826-55.072,84.768L300.93,145.953z"/>
	</g>
</g>
<g>
</g>
<g>
</g>
<g>
</g>
<g>
</g>
<g>
</g>
<g>
</g>
<g>
</g>
<g>
</g>
<g>
</g>
<g>
</g>
<g>
</g>
<g>
</g>
<g>
</g>
<g>
</g>
<g>
</g>
</svg>
