<?xml version="1.0" encoding="iso-8859-1"?>
<!-- Generator: Adobe Illustrator 19.0.0, SVG Export Plug-In . SVG Version: 6.00 Build 0)  -->
<svg version="1.1" id="Layer_1" xmlns="http://www.w3.org/2000/svg" xmlns:xlink="http://www.w3.org/1999/xlink" x="0px" y="0px"
	 viewBox="0 0 341.013 341.013" style="enable-background:new 0 0 341.013 341.013;" xml:space="preserve">
<g>
	<g>
		<path style="fill:#00783E;" d="M80.803,89.404C65.748,58.07,67.728,25.852,67.728,25.852s26.39,18.588,41.444,49.922
			c15.055,31.335,13.074,63.552,13.074,63.552S95.859,120.739,80.803,89.404z"/>
		<path style="fill:#006132;" d="M111.379,80.675v49.528c6.353,5.939,10.867,9.123,10.867,9.123S124.016,110.378,111.379,80.675z"/>
		<path style="fill:#00783E;" d="M152.571,116.59c13.511,0,24.504-10.993,24.504-24.504c0-4.393-3.561-7.954-7.954-7.954
			c-4.393,0-7.954,3.562-7.954,7.954c0,4.739-3.856,8.596-8.597,8.596c-6.367,0-12.32,1.8-17.383,4.913V51.401
			c0-4.393-3.562-7.953-7.954-7.953c-4.392,0-7.953,3.561-7.953,7.953v87.874c0,3.268,0.453,6.486,1.291,9.585
			c-0.25-0.004-0.497-0.019-0.747-0.019H95.942c-4.393,0-7.953,3.562-7.953,7.953c0,4.393,3.561,7.954,7.953,7.954h23.883
			c14.618,0,26.512,11.894,26.512,26.513v26.945c0,4.393,3.561,7.954,7.954,7.954c4.393,0,7.954-3.561,7.954-7.954v-26.945
			c0-14.399-7.218-27.138-18.219-34.81c-0.072-0.057-0.139-0.119-0.213-0.174c-5.48-4.021-8.624-10.218-8.624-17.003v-5.302
			C135.188,124.388,142.985,116.59,152.571,116.59z"/>
		<path style="fill:#FEDD3D;" d="M150.708,38.056c0,12.964-10.509,23.474-23.474,23.474c-12.964,0-23.474-10.51-23.474-23.474V2.651
			c12.964,0,23.474,10.51,23.474,23.474c0-12.964,10.51-23.474,23.474-23.474V38.056z"/>
	</g>
	<g>
		<path style="fill:#00783E;" d="M264.546,66.379c12.544-32.42,8.038-64.383,8.038-64.383s-24.845,20.605-37.39,53.026
			c-12.545,32.422-8.038,64.383-8.038,64.383S252.001,98.801,264.546,66.379z"/>
		<path style="fill:#006132;" d="M230.666,69.345c-6.769,26.893-3.51,50.06-3.51,50.06s5.079-4.219,11.797-11.823V91.289
			C238.954,82.888,235.819,75.209,230.666,69.345z"/>
		<path style="fill:#00783E;" d="M255.542,130.967H231.66c-0.25,0-0.497,0.015-0.747,0.019c0.837-3.1,1.291-6.318,1.291-9.585
			V93.289c0-18.356-14.935-33.291-33.291-33.291c-4.74,0-8.597-3.856-8.597-8.597c0-4.393-3.561-7.953-7.954-7.953
			c-4.393,0-7.954,3.561-7.954,7.953c0,13.512,10.993,24.504,24.504,24.504c9.585,0,17.384,7.798,17.384,17.384V121.4
			c0,6.785-3.144,12.982-8.624,17.003c-0.075,0.055-0.141,0.117-0.213,0.174c-11.001,7.672-18.219,20.41-18.219,34.809v26.946
			c0,4.393,3.561,7.954,7.954,7.954c4.393,0,7.954-3.562,7.954-7.954v-26.946c0-14.618,11.894-26.512,26.512-26.512h23.882
			c4.393,0,7.954-3.561,7.954-7.954C263.496,134.528,259.935,130.967,255.542,130.967z"/>
		<path style="fill:#FF8189;" d="M205.837,35.404c0,12.964-10.51,23.474-23.474,23.474s-23.474-10.51-23.474-23.474V0
			c12.964,0,23.474,10.51,23.474,23.474C182.362,10.51,192.872,0,205.837,0V35.404z"/>
	</g>
	<rect x="112.398" y="181.11" style="fill:#8CD5EF;" width="120.588" height="159.903"/>
	<rect x="112.398" y="303.067" style="fill:#00B3E3;" width="120.588" height="37.946"/>
</g>
<g>
</g>
<g>
</g>
<g>
</g>
<g>
</g>
<g>
</g>
<g>
</g>
<g>
</g>
<g>
</g>
<g>
</g>
<g>
</g>
<g>
</g>
<g>
</g>
<g>
</g>
<g>
</g>
<g>
</g>
</svg>
