<?xml version="1.0" encoding="iso-8859-1"?>
<!-- Generator: Adobe Illustrator 19.0.0, SVG Export Plug-In . SVG Version: 6.00 Build 0)  -->
<svg version="1.1" id="Layer_1" xmlns="http://www.w3.org/2000/svg" xmlns:xlink="http://www.w3.org/1999/xlink" x="0px" y="0px"
	 viewBox="0 0 315.851 315.851" style="enable-background:new 0 0 315.851 315.851;" xml:space="preserve">
<g>
	<path style="fill:#B3874F;" d="M307.176,157.268c4.79,0,8.674-3.884,8.674-8.675c0-63.591-51.549-115.141-115.141-115.141H115.14
		C51.549,33.453,0,85.002,0,148.593c0,4.791,3.884,8.675,8.674,8.675H307.176z"/>
	<g>
		<path style="fill:#B3874F;" d="M315.851,272.108c0,5.661-4.632,10.292-10.292,10.292H10.293C4.632,282.4,0,277.768,0,272.108
			v-30.879c0-5.661,4.632-10.293,10.293-10.293h295.265c5.661,0,10.292,4.632,10.292,10.293v30.879H315.851z"/>
		<path style="fill:#997443;" d="M305.558,230.936H10.293C4.632,230.936,0,235.568,0,241.229v3.031h315.851v-3.031
			C315.851,235.568,311.219,230.936,305.558,230.936z"/>
	</g>
	<path style="fill:#5A3C3D;" d="M315.851,206.491c0-7.784-6.369-14.153-14.152-14.153H14.153C6.369,192.338,0,198.707,0,206.491
		v10.292c0,7.784,6.369,14.153,14.153,14.153h287.545c7.784,0,14.152-6.369,14.152-14.153v-10.292H315.851z"/>
	<path style="fill:#FEDD3D;" d="M307.284,175.204H8.567c-4.731,0-8.567,3.836-8.567,8.567s3.836,8.567,8.567,8.567h54.275v17.855
		c0,4.165,3.376,7.542,7.541,7.542s7.542-3.377,7.542-7.542v-17.855h160.438v8.561c0,6.663,5.401,12.063,12.063,12.063
		s12.063-5.401,12.063-12.063v-8.561h44.793c4.731,0,8.567-3.836,8.567-8.567C315.851,179.04,312.015,175.204,307.284,175.204z"/>
	<path style="fill:#F2D383;" d="M51.514,117.6c0,5.21,4.224,9.435,9.436,9.435c5.21,0,9.435-4.224,9.435-9.435
		s-4.224-18.507-9.435-18.507C55.738,99.093,51.514,112.389,51.514,117.6z"/>
	<path style="fill:#F2D383;" d="M101.745,73.858c0,5.211,4.224,9.435,9.436,9.435c5.21,0,9.435-4.224,9.435-9.435
		s-4.224-18.507-9.435-18.507C105.969,55.351,101.745,68.647,101.745,73.858z"/>
	<path style="fill:#F2D383;" d="M257.233,117.6c0,5.21-4.224,9.435-9.435,9.435s-9.435-4.224-9.435-9.435s4.224-18.507,9.435-18.507
		S257.233,112.389,257.233,117.6z"/>
	<path style="fill:#F2D383;" d="M207.001,73.858c0,5.211-4.224,9.435-9.435,9.435c-5.21,0-9.435-4.224-9.435-9.435
		s4.224-18.507,9.435-18.507C202.777,55.351,207.001,68.647,207.001,73.858z"/>
	<path style="fill:#F2D383;" d="M144.938,117.6c0,5.21,4.224,9.435,9.435,9.435s9.435-4.224,9.435-9.435s-4.224-18.507-9.435-18.507
		S144.938,112.389,144.938,117.6z"/>
	<rect x="8.674" y="157.268" style="fill:#E94F3D;" width="298.502" height="17.935"/>
	<g>
		<path style="fill:#00783E;" d="M17.134,175.204c0,15.159,12.289,27.448,27.448,27.448s27.448-12.289,27.448-27.448H17.134z"/>
		<path style="fill:#00783E;" d="M72.03,175.204c0,15.159,12.289,27.448,27.448,27.448s27.447-12.289,27.447-27.448H72.03z"/>
		<path style="fill:#00783E;" d="M126.925,175.204c0,15.159,12.289,27.448,27.448,27.448s27.448-12.289,27.448-27.448H126.925z"/>
		<path style="fill:#00783E;" d="M181.82,175.204c0,15.159,12.289,27.448,27.448,27.448s27.448-12.289,27.448-27.448H181.82z"/>
		<path style="fill:#00783E;" d="M236.716,175.204c0,15.159,12.289,27.448,27.448,27.448s27.448-12.289,27.448-27.448H236.716z"/>
	</g>
</g>
<g>
</g>
<g>
</g>
<g>
</g>
<g>
</g>
<g>
</g>
<g>
</g>
<g>
</g>
<g>
</g>
<g>
</g>
<g>
</g>
<g>
</g>
<g>
</g>
<g>
</g>
<g>
</g>
<g>
</g>
</svg>
