<?xml version="1.0" encoding="iso-8859-1"?>
<!-- Generator: Adobe Illustrator 19.0.0, SVG Export Plug-In . SVG Version: 6.00 Build 0)  -->
<svg version="1.1" id="Layer_1" xmlns="http://www.w3.org/2000/svg" xmlns:xlink="http://www.w3.org/1999/xlink" x="0px" y="0px"
	 viewBox="0 0 393.01 393.01" style="enable-background:new 0 0 393.01 393.01;" xml:space="preserve">
<g>
	<g>
		<polygon style="fill:#B3874F;" points="115.524,185.995 137.301,185.995 113.564,393.01 91.787,393.01 		"/>
		<polygon style="fill:#997443;" points="97.407,343.994 95.84,357.661 117.617,357.661 119.184,343.994 		"/>
		<polygon style="fill:#997443;" points="115.524,185.995 114.03,199.026 135.807,199.026 137.301,185.995 		"/>
	</g>
	<g>
		<polygon style="fill:#B3874F;" points="259.588,185.995 237.812,185.995 261.549,393.01 283.326,393.01 		"/>
		<polygon style="fill:#997443;" points="277.706,343.994 255.928,343.994 257.496,357.661 279.273,357.661 		"/>
		<polygon style="fill:#997443;" points="259.588,185.995 261.083,199.026 239.306,199.026 237.812,185.995 		"/>
	</g>
	<polygon style="fill:#D9A460;" points="278.587,351.688 96.525,351.688 98.13,337.688 276.982,337.688 	"/>
	<rect x="229.223" y="100.994" style="fill:#B3874F;" width="19" height="67"/>
	<path style="fill:#712D3D;" d="M139.8,35.16h-3.173v132.834h9.604V41.592C146.231,38.04,143.352,35.16,139.8,35.16z"/>
	<path style="fill:#B3874F;" d="M139.628,28.864v-8.798h-4.495c2.759-2.116,4.495-5.126,4.495-8.479
		C139.628,5.188,133.336,0,125.576,0s-14.052,5.188-14.052,11.588c0,3.352,1.736,6.362,4.495,8.479h-4.495v156.406h28.104
		L139.628,28.864L139.628,28.864z"/>
	<path style="fill:#D9A460;" d="M111.524,163.649h146.064c4.4,0,8,3.601,8,8v9.646c0,4.4-3.6,8-8,8H111.524V163.649z"/>
	<path style="fill:#D9A460;" d="M301.223,89.858v10.045c0,2.142-1.751,3.893-3.893,3.893H111.524V89.858H301.223z"/>
	<path style="fill:#B3874F;" d="M301.223,89.858c0-3.515-2.85-6.364-6.364-6.364h-95.407c-3.515,0-6.364,2.85-6.364,6.364H301.223z"
		/>
</g>
<g>
</g>
<g>
</g>
<g>
</g>
<g>
</g>
<g>
</g>
<g>
</g>
<g>
</g>
<g>
</g>
<g>
</g>
<g>
</g>
<g>
</g>
<g>
</g>
<g>
</g>
<g>
</g>
<g>
</g>
</svg>
