<?xml version="1.0" encoding="iso-8859-1"?>
<!-- Generator: Adobe Illustrator 19.0.0, SVG Export Plug-In . SVG Version: 6.00 Build 0)  -->
<svg version="1.1" id="Layer_1" xmlns="http://www.w3.org/2000/svg" xmlns:xlink="http://www.w3.org/1999/xlink" x="0px" y="0px"
	 viewBox="0 0 334 334" style="enable-background:new 0 0 334 334;" xml:space="preserve">
<g>
	<g>
		<rect x="131.416" y="65.965" style="fill:#F2D383;" width="71.167" height="27.049"/>
		<rect x="131.416" y="82.465" style="fill:#D9A460;" width="71.167" height="10.549"/>
	</g>
	<path style="fill:#F2D383;" d="M334,240.66c0-9.35-7.65-17-17-17H17c-9.35,0-17,7.65-17,17v10.375c0,9.35,7.65,17,17,17h300
		c9.35,0,17-7.65,17-17V240.66z"/>
	<path style="fill:#D9A460;" d="M334,196.285c0-9.35-7.65-17-17-17H17c-9.35,0-17,7.65-17,17v10.375c0,9.35,7.65,17,17,17h300
		c9.35,0,17-7.65,17-17V196.285z"/>
	<path style="fill:#F2D383;" d="M334,151.91c0-9.35-7.65-17-17-17H17c-9.35,0-17,7.65-17,17v10.375c0,9.35,7.65,17,17,17h300
		c9.35,0,17-7.65,17-17V151.91z"/>
	<path style="fill:#D9A460;" d="M334,107.535c0-9.35-7.65-17-17-17H17c-9.35,0-17,7.65-17,17v10.375c0,9.35,7.65,17,17,17h300
		c9.35,0,17-7.65,17-17V107.535z"/>
	<g>
		<path style="fill:#B3874F;" d="M296,165.209c0,14.359-11.641,26-26,26s-26-11.641-26-26v-13.172c0-14.359-11.641-26-26-26
			s-26,11.641-26,26v49.593c0,14.359-11.641,26-26,26s-26-11.641-26-26v-52.421c0-14.359-11.641-26-26-26s-26,11.641-26,26v11.858
			c0,14.359-11.641,26-26,26s-26-11.641-26-26V90.535h260V165.209z"/>
	</g>
</g>
<g>
</g>
<g>
</g>
<g>
</g>
<g>
</g>
<g>
</g>
<g>
</g>
<g>
</g>
<g>
</g>
<g>
</g>
<g>
</g>
<g>
</g>
<g>
</g>
<g>
</g>
<g>
</g>
<g>
</g>
</svg>
