<?xml version="1.0" encoding="iso-8859-1"?>
<!-- Generator: Adobe Illustrator 19.0.0, SVG Export Plug-In . SVG Version: 6.00 Build 0)  -->
<svg version="1.1" id="Layer_1" xmlns="http://www.w3.org/2000/svg" xmlns:xlink="http://www.w3.org/1999/xlink" x="0px" y="0px"
	 viewBox="0 0 382.795 382.795" style="enable-background:new 0 0 382.795 382.795;" xml:space="preserve">
<g>
	<g>
		<path style="fill:#E94F3D;" d="M380.186,221.985c-1.441,0-2.609-1.168-2.609-2.608c0-7.459-6.068-13.525-13.525-13.525h-14.565
			c-1.441,0-2.609-1.168-2.609-2.609s1.168-2.609,2.609-2.609h14.565c10.335,0,18.743,8.408,18.743,18.744
			C382.795,220.817,381.627,221.985,380.186,221.985z"/>
		<path style="fill:#E94F3D;" d="M347.66,198.418c-1.441,0-2.609-1.168-2.609-2.609s1.168-2.609,2.609-2.609
			c10.503,0,19.046-8.543,19.046-19.046s-8.544-19.046-19.046-19.046H209.898c-7.529,0-13.654-6.125-13.654-13.654
			c0-7.528,6.125-13.653,13.654-13.653c1.441,0,2.609,1.168,2.609,2.609c0,1.44-1.168,2.608-2.609,2.608
			c-4.651,0-8.436,3.784-8.436,8.436c0,4.652,3.784,8.436,8.436,8.436H347.66c13.38,0,24.265,10.885,24.265,24.265
			C371.925,187.533,361.04,198.418,347.66,198.418z"/>
		<path style="fill:#E94F3D;" d="M376.096,254.993c0-48.85-39.602-88.452-88.451-88.452h-152.88
			c-48.851,0-88.451,39.603-88.451,88.452L376.096,254.993L376.096,254.993z"/>
		<g>
			<path style="fill:#BF4132;" d="M235.639,245.163c-9.498,0-17.198-7.699-17.198-17.198c0-9.498,7.7-17.198,17.198-17.198h27.134
				c9.499,0,17.198,7.7,17.198,17.198c0,9.499-7.7,17.198-17.198,17.198H235.639z"/>
			<path style="fill:#F47660;" d="M284.062,254.993c-14.927,0-27.028-12.102-27.028-27.028c0-14.927,12.101-27.027,27.028-27.027
				h29.421c21.675,0,40.372,12.758,48.989,31.176c-9.227,9.227-25.705,22.88-25.705,22.88L284.062,254.993L284.062,254.993z"/>
			<path style="fill:#BF4132;" d="M362.467,232.131c0,12.626-10.235,22.862-22.863,22.862h-55.852
				c-6.313,0-11.431-5.118-11.431-11.432c0-6.313,5.118-11.431,11.431-11.431h78.715V232.131z"/>
		</g>
		<g>
			<path style="fill:#E94F3D;" d="M326.005,187.025c-1.083,0-2.096-0.68-2.467-1.762c-0.468-1.363,0.257-2.847,1.619-3.315
				l21.254-7.306c1.359-0.471,2.846,0.256,3.315,1.619c0.468,1.363-0.257,2.847-1.619,3.316l-21.254,7.306
				C326.573,186.979,326.287,187.025,326.005,187.025z"/>
			<circle style="fill:#333E48;" cx="347.259" cy="177.109" r="7.305"/>
		</g>
		<path style="fill:#F47660;" d="M182.871,227.966c0,14.927,12.101,27.027,27.027,27.027v-88.452h-27.027V227.966z"/>
		<path style="fill:#BF4132;" d="M155.843,227.966c0,14.927,12.101,27.027,27.028,27.027v-88.452h-27.028V227.966z"/>
		<path style="fill:#F47660;" d="M134.765,166.541c-2.001,0-3.981,0.091-5.949,0.222v61.203c0,14.927,12.101,27.027,27.027,27.027
			v-88.452L134.765,166.541L134.765,166.541z"/>
		<path style="fill:#BF4132;" d="M101.788,172.919v55.047c0,14.927,12.101,27.027,27.028,27.027v-88.23
			C119.316,167.394,110.232,169.523,101.788,172.919z"/>
		<path style="fill:#BF4132;" d="M54.352,254.993c9.172,0,16.608-7.436,16.608-16.608c0-9.171-7.435-16.608-16.608-16.608H33.215
			C14.872,221.776,0,236.649,0,254.993H54.352z"/>
	</g>
	<path style="fill:#00783E;" d="M124.65,254.993c0-16.469-13.351-29.819-29.819-29.819c-16.47,0-29.821,13.351-29.821,29.819H124.65
		z"/>
	<path style="fill:#00783E;" d="M199.178,254.993c0-16.469-13.351-29.819-29.821-29.819c-16.468,0-29.819,13.351-29.819,29.819
		H199.178z"/>
	<path style="fill:#00783E;" d="M273.704,254.993c0-16.469-13.351-29.819-29.82-29.819c-16.47,0-29.821,13.351-29.821,29.819
		H273.704z"/>
</g>
<g>
</g>
<g>
</g>
<g>
</g>
<g>
</g>
<g>
</g>
<g>
</g>
<g>
</g>
<g>
</g>
<g>
</g>
<g>
</g>
<g>
</g>
<g>
</g>
<g>
</g>
<g>
</g>
<g>
</g>
</svg>
