<?xml version="1.0" encoding="iso-8859-1"?>
<!-- Generator: Adobe Illustrator 19.0.0, SVG Export Plug-In . SVG Version: 6.00 Build 0)  -->
<svg version="1.1" id="Layer_1" xmlns="http://www.w3.org/2000/svg" xmlns:xlink="http://www.w3.org/1999/xlink" x="0px" y="0px"
	 viewBox="0 0 347.787 347.787" style="enable-background:new 0 0 347.787 347.787;" xml:space="preserve">
<g>
	<polygon style="fill:#FEDD3D;" points="185.058,0 162.729,0 128.908,61.667 218.88,61.667 	"/>
	<rect x="121.65" y="56.667" style="fill:#B3874F;" width="104.485" height="31.666"/>
	<g>
		<rect x="135.015" y="56.667" style="fill:#F2D383;" width="7.257" height="31.666"/>
		<rect x="158.515" y="56.667" style="fill:#F2D383;" width="7.257" height="31.666"/>
		<rect x="182.015" y="56.667" style="fill:#F2D383;" width="7.257" height="31.666"/>
		<rect x="205.515" y="56.667" style="fill:#F2D383;" width="7.257" height="31.666"/>
	</g>
	<path style="fill:#FEDD3D;" d="M251.119,101.666c0-11-9-20-20-20H116.668c-11,0-20,9-20,20v226.121c0,11,9,20,20,20h114.451
		c11,0,20-9,20-20V101.666L251.119,101.666z"/>
	<rect x="124.637" y="136.933" style="fill:#FFFFFF;" width="98.515" height="155.589"/>
	<path style="fill:#FEDD3D;" d="M171.092,259.273c-3.201,0-6.224-1.935-7.456-5.098c-1.604-4.116,0.433-8.754,4.549-10.358
		c2.957-1.152,5.386-3.346,6.837-6.177c3.271-6.379,0.744-14.23-5.635-17.501c-6.893-3.534-11.996-9.541-14.371-16.915
		c-2.375-7.373-1.735-15.23,1.799-22.123c4.521-8.814,13.111-14.657,22.98-15.63c4.393-0.42,8.313,2.78,8.746,7.178
		c0.433,4.396-2.78,8.313-7.177,8.746c-4.43,0.437-8.285,3.056-10.312,7.007c-1.585,3.091-1.871,6.612-0.807,9.918
		c1.065,3.306,3.353,5.998,6.442,7.582c14.229,7.299,19.868,24.811,12.571,39.039c-3.239,6.315-8.66,11.21-15.265,13.784
		C173.041,259.098,172.058,259.273,171.092,259.273z"/>
</g>
<g>
</g>
<g>
</g>
<g>
</g>
<g>
</g>
<g>
</g>
<g>
</g>
<g>
</g>
<g>
</g>
<g>
</g>
<g>
</g>
<g>
</g>
<g>
</g>
<g>
</g>
<g>
</g>
<g>
</g>
</svg>
