<?xml version="1.0" encoding="iso-8859-1"?>
<!-- Generator: Adobe Illustrator 19.0.0, SVG Export Plug-In . SVG Version: 6.00 Build 0)  -->
<svg version="1.1" id="Layer_1" xmlns="http://www.w3.org/2000/svg" xmlns:xlink="http://www.w3.org/1999/xlink" x="0px" y="0px"
	 viewBox="0 0 340.414 340.414" style="enable-background:new 0 0 340.414 340.414;" xml:space="preserve">
<g>
	<g>
		<rect x="38.211" y="36.857" style="fill:#D1D3D3;" width="263.99" height="234.999"/>
		<g>
			<path style="fill:#C3C6C8;" d="M279.381,118.187c-2.35,0-4.256-1.906-4.256-4.255c0-2.35,1.906-4.255,4.256-4.255
				c3.226,0,5.851-2.625,5.851-5.851s-2.625-5.851-5.851-5.851c-7.92,0-14.361-6.442-14.361-14.361s6.441-14.362,14.361-14.362
				c2.35,0,4.255,1.905,4.255,4.255s-1.905,4.255-4.255,4.255c-3.226,0-5.852,2.624-5.852,5.851c0,3.226,2.626,5.851,5.852,5.851
				c7.919,0,14.361,6.443,14.361,14.362C293.742,111.744,287.3,118.187,279.381,118.187z"/>
			<path style="fill:#C3C6C8;" d="M67.824,95.007c-3.678,0-7.355-1.4-10.153-4.199c-1.663-1.663-1.663-4.356,0-6.019
				c1.66-1.661,4.356-1.661,6.017,0c2.283,2.281,5.996,2.28,8.276,0c2.279-2.28,2.279-5.993-0.002-8.274
				c-5.599-5.599-5.599-14.711,0.002-20.311c5.598-5.599,14.71-5.599,20.308,0c1.662,1.662,1.662,4.356,0,6.018
				c-1.66,1.662-4.356,1.662-6.017,0c-1.105-1.104-2.575-1.713-4.138-1.713s-3.031,0.608-4.137,1.713
				c-2.281,2.282-2.281,5.994-0.001,8.275c5.599,5.6,5.599,14.711,0.002,20.311C75.181,93.607,71.502,95.007,67.824,95.007z"/>
			<path style="fill:#C3C6C8;" d="M62.706,263.862c-3.678,0-7.355-1.4-10.154-4.199c-1.662-1.662-1.662-4.356,0-6.018
				c1.66-1.662,4.357-1.662,6.018,0c2.282,2.281,5.995,2.28,8.275-0.001c2.279-2.28,2.279-5.993-0.002-8.274
				c-5.599-5.599-5.599-14.711,0.002-20.311c5.598-5.598,14.711-5.598,20.309,0c1.662,1.663,1.662,4.356,0,6.019
				c-1.66,1.661-4.357,1.661-6.018,0c-1.105-1.105-2.574-1.713-4.137-1.713s-3.031,0.608-4.137,1.713
				c-2.281,2.281-2.281,5.994-0.001,8.274c5.599,5.6,5.599,14.711,0.002,20.311C70.063,262.462,66.384,263.862,62.706,263.862z"/>
			<path style="fill:#C3C6C8;" d="M91.358,161.115c-1.09,0-2.179-0.415-3.01-1.247c-1.661-1.663-1.661-4.357,0.001-6.018
				c2.281-2.28,2.281-5.993-0.001-8.275c-2.28-2.279-5.994-2.279-8.274,0.002c-2.712,2.712-6.317,4.206-10.154,4.206l0,0
				c-3.836,0-7.443-1.495-10.156-4.207c-5.6-5.6-5.6-14.71,0-20.31c1.66-1.661,4.358-1.661,6.018,0c1.662,1.663,1.662,4.356,0,6.019
				c-1.104,1.104-1.712,2.573-1.712,4.136s0.607,3.032,1.712,4.136c1.107,1.106,2.575,1.715,4.139,1.715l0,0
				c1.563,0,3.031-0.608,4.136-1.713c5.6-5.597,14.71-5.601,20.312-0.002c5.6,5.604,5.6,14.714,0,20.312
				C93.536,160.699,92.447,161.115,91.358,161.115z"/>
			<path style="fill:#C3C6C8;" d="M140.051,109.305c-1.09,0-2.178-0.415-3.009-1.246c-1.661-1.662-1.661-4.356,0.001-6.018
				c2.281-2.28,2.28-5.993-0.001-8.276c-2.279-2.279-5.994-2.278-8.275,0.002c-2.711,2.712-6.317,4.206-10.153,4.206l0,0
				c-3.837,0-7.444-1.495-10.156-4.207c-5.6-5.6-5.6-14.709,0-20.309c1.66-1.661,4.356-1.661,6.017,0
				c1.662,1.662,1.662,4.356,0,6.018c-1.104,1.104-1.712,2.573-1.712,4.137c0,1.563,0.607,3.032,1.712,4.136
				c1.106,1.106,2.575,1.714,4.14,1.714l0,0c1.563,0,3.031-0.608,4.135-1.713c5.6-5.598,14.71-5.601,20.311-0.002
				c5.6,5.603,5.6,14.714,0,20.312C142.229,108.89,141.14,109.305,140.051,109.305z"/>
			<path style="fill:#C3C6C8;" d="M191.631,97.967c-3.678,0-7.355-1.4-10.154-4.199c-1.662-1.662-1.662-4.356,0-6.018
				c1.66-1.661,4.357-1.661,6.018,0c1.105,1.105,2.574,1.713,4.137,1.713s3.031-0.608,4.137-1.713
				c1.105-1.105,1.715-2.575,1.715-4.138s-0.608-3.032-1.714-4.137c-5.599-5.6-5.599-14.71-0.002-20.31
				c5.602-5.6,14.713-5.6,20.313,0c1.661,1.662,1.661,4.356-0.001,6.018s-4.356,1.661-6.019,0c-2.28-2.281-5.994-2.28-8.274,0.001
				c-2.279,2.28-2.279,5.994,0.002,8.275c2.712,2.711,4.205,6.318,4.205,10.155c0,3.836-1.493,7.443-4.207,10.156
				C198.986,96.567,195.309,97.967,191.631,97.967z"/>
			<path style="fill:#C3C6C8;" d="M218.327,155.148c-3.678,0-7.355-1.4-10.154-4.199c-1.662-1.662-1.662-4.356,0-6.019
				c1.66-1.661,4.357-1.661,6.018,0c1.105,1.105,2.574,1.713,4.137,1.713s3.031-0.608,4.137-1.713
				c1.105-1.105,1.715-2.575,1.715-4.138s-0.608-3.032-1.714-4.136c-5.599-5.6-5.599-14.711-0.002-20.311
				c5.602-5.6,14.713-5.6,20.313,0c1.661,1.663,1.661,4.357-0.001,6.018c-1.663,1.662-4.357,1.661-6.019-0.001
				c-2.28-2.282-5.994-2.281-8.274,0.001c-2.279,2.28-2.279,5.993,0.002,8.274c2.712,2.712,4.205,6.318,4.205,10.155
				c0,3.836-1.493,7.443-4.207,10.156C225.683,153.748,222.005,155.148,218.327,155.148z"/>
			<path style="fill:#C3C6C8;" d="M118.611,216.346c-3.678,0-7.354-1.4-10.153-4.199c-1.663-1.662-1.663-4.356,0-6.019
				c1.66-1.661,4.356-1.661,6.017,0c1.105,1.105,2.574,1.713,4.137,1.713s3.032-0.608,4.137-1.713s1.715-2.575,1.715-4.138
				s-0.607-3.031-1.713-4.136c-5.599-5.6-5.599-14.711-0.002-20.311c5.602-5.6,14.712-5.6,20.311,0
				c1.661,1.662,1.661,4.357-0.001,6.018c-1.663,1.662-4.356,1.661-6.018-0.001c-2.279-2.282-5.994-2.281-8.275,0.001
				c-2.279,2.28-2.279,5.993,0.002,8.274c2.712,2.712,4.206,6.318,4.206,10.155c0,3.836-1.494,7.443-4.208,10.156
				C125.967,214.946,122.289,216.346,118.611,216.346z"/>
			<path style="fill:#C3C6C8;" d="M252.021,203.945c-3.678,0-7.355-1.4-10.154-4.199c-1.662-1.662-1.662-4.356,0-6.018
				c1.66-1.661,4.357-1.661,6.018,0c1.105,1.105,2.574,1.713,4.137,1.713s3.031-0.608,4.137-1.713
				c1.105-1.105,1.715-2.576,1.715-4.139s-0.608-3.031-1.714-4.136c-5.599-5.6-5.599-14.71-0.002-20.31
				c5.602-5.6,14.713-5.6,20.313,0c1.661,1.662,1.661,4.356-0.001,6.018c-1.663,1.662-4.357,1.661-6.018-0.001
				c-2.28-2.281-5.994-2.281-8.274,0.001c-2.279,2.28-2.279,5.994,0.002,8.275c2.712,2.712,4.205,6.318,4.205,10.154
				c0,3.837-1.493,7.443-4.207,10.156C259.377,202.545,255.699,203.945,252.021,203.945z"/>
			<path style="fill:#C3C6C8;" d="M196.804,252.999c-1.089,0-2.179-0.415-3.009-1.246c-1.662-1.662-1.662-4.356,0-6.018
				c1.104-1.105,1.712-2.573,1.712-4.137c0-1.563-0.607-3.032-1.712-4.136c-1.107-1.106-2.575-1.714-4.139-1.714l0,0
				c-1.563,0-3.031,0.608-4.136,1.713c-5.601,5.597-14.711,5.6-20.311,0.002c-5.6-5.603-5.6-14.714,0-20.312
				c1.663-1.662,4.357-1.661,6.018,0.001c1.661,1.662,1.661,4.356-0.001,6.018c-2.281,2.28-2.281,5.993,0.001,8.276
				c2.28,2.279,5.994,2.279,8.274-0.002c2.712-2.712,6.317-4.206,10.154-4.206l0,0c3.836,0,7.443,1.495,10.156,4.207
				c5.6,5.6,5.6,14.71,0,20.309C198.982,252.583,197.893,252.999,196.804,252.999z"/>
			<path style="fill:#C3C6C8;" d="M184.5,172.903c-1.089,0-2.179-0.416-3.009-1.246c-1.662-1.662-1.662-4.356,0-6.018
				c1.105-1.104,1.712-2.573,1.712-4.136s-0.607-3.032-1.712-4.137c-1.106-1.106-2.575-1.714-4.139-1.714l0,0
				c-1.563,0-3.031,0.608-4.136,1.713c-5.601,5.597-14.711,5.6-20.312,0.002c-5.6-5.603-5.6-14.714,0-20.312
				c1.663-1.662,4.357-1.661,6.019,0.001c1.661,1.662,1.661,4.356-0.001,6.018c-2.281,2.28-2.28,5.993,0.001,8.276
				c2.279,2.279,5.993,2.278,8.274-0.002c2.712-2.712,6.317-4.206,10.154-4.206l0,0c3.837,0,7.443,1.495,10.156,4.207
				c5.6,5.6,5.6,14.71,0,20.309C186.679,172.488,185.589,172.903,184.5,172.903z"/>
			<path style="fill:#C3C6C8;" d="M276.422,267.291c-1.089,0-2.179-0.415-3.009-1.246c-1.662-1.662-1.662-4.356,0-6.018
				c1.104-1.104,1.712-2.573,1.712-4.137c0-1.563-0.608-3.032-1.712-4.136c-1.106-1.106-2.575-1.714-4.139-1.714l0,0
				c-1.563,0-3.031,0.608-4.136,1.713c-5.601,5.597-14.711,5.6-20.312,0.002c-5.6-5.603-5.6-14.714,0-20.312
				c1.662-1.662,4.356-1.661,6.019,0.001c1.661,1.662,1.661,4.357-0.001,6.018c-2.281,2.28-2.28,5.993,0.001,8.276
				c2.28,2.279,5.994,2.278,8.274-0.002c2.712-2.712,6.317-4.206,10.154-4.206l0,0c3.837,0,7.443,1.495,10.156,4.207
				c5.6,5.6,5.6,14.71,0,20.309C278.601,266.875,277.511,267.291,276.422,267.291z"/>
		</g>
	</g>
	<polygon style="fill:#D9A460;" points="170.207,67.478 27.612,210.072 105.247,287.707 235.167,287.707 312.802,210.072 	"/>
	<polygon style="fill:#B3874F;" points="170.207,106.885 67.021,210.072 144.654,287.707 195.76,287.707 273.393,210.072 	"/>
	<rect y="271.855" style="fill:#997443;" width="340.414" height="31.702"/>
</g>
<g>
</g>
<g>
</g>
<g>
</g>
<g>
</g>
<g>
</g>
<g>
</g>
<g>
</g>
<g>
</g>
<g>
</g>
<g>
</g>
<g>
</g>
<g>
</g>
<g>
</g>
<g>
</g>
<g>
</g>
</svg>
