<svg id="svg" version="1.1" width="400" height="400" xmlns="http://www.w3.org/2000/svg" xmlns:xlink="http://www.w3.org/1999/xlink" style="display: block;"><g id="svgg"><path id="path0" d="" stroke="none" fill="#000000" fill-rule="evenodd"></path><path id="path1" d="M135.228 111.000 C 121.590 124.511,121.654 150.863,135.356 164.359 L 137.625 166.594 137.690 152.191 C 137.725 144.270,137.725 131.227,137.690 123.207 L 137.625 108.625 135.228 111.000 M158.489 113.133 C 156.121 119.190,138.545 166.378,138.626 166.459 C 139.185 167.018,145.564 163.614,148.780 161.041 C 162.151 150.343,167.429 127.029,159.513 113.633 L 158.779 112.391 158.489 113.133 M255.118 126.091 C 252.857 127.183,250.719 128.782,247.935 131.462 C 225.493 153.071,227.540 188.456,251.234 188.496 C 272.461 188.531,280.770 155.233,265.439 131.575 C 261.517 125.523,259.031 124.202,255.118 126.091 M257.748 149.403 C 259.718 151.183,261.685 155.284,262.528 159.370 C 264.444 168.653,259.969 176.875,253.000 176.875 C 242.346 176.875,241.470 160.929,251.596 151.310 C 254.651 148.408,256.137 147.948,257.748 149.403 M195.393 181.643 C 194.319 182.717,195.531 184.658,196.889 184.039 C 197.229 183.884,197.634 183.479,197.789 183.139 C 198.408 181.781,196.467 180.569,195.393 181.643 M290.215 191.113 C 282.196 192.264,275.065 195.650,270.268 200.585 C 268.611 202.290,268.136 202.133,276.000 202.477 C 279.506 202.630,289.125 203.091,297.375 203.501 C 305.625 203.912,314.850 204.359,317.875 204.495 C 320.900 204.631,324.142 204.802,325.080 204.875 L 326.786 205.007 325.955 203.845 C 319.322 194.568,304.052 189.128,290.215 191.113 M323.125 206.666 C 321.200 207.283,315.631 209.064,310.750 210.623 C 305.869 212.183,299.344 214.267,296.250 215.256 C 293.156 216.245,290.530 217.111,290.414 217.181 C 290.298 217.251,291.017 217.750,292.012 218.290 C 295.678 220.279,299.022 222.639,301.741 225.157 L 303.214 226.521 305.420 225.669 C 315.261 221.869,323.003 214.982,326.155 207.225 C 326.936 205.301,327.217 205.353,323.125 206.666 M141.222 239.625 C 139.160 240.745,140.077 244.000,142.455 244.000 C 144.599 244.000,145.563 241.524,144.019 239.981 C 143.206 239.167,142.280 239.050,141.222 239.625 M178.500 251.383 C 178.500 251.606,202.037 303.360,202.234 303.571 C 202.335 303.679,202.766 303.004,203.192 302.071 C 211.285 284.345,199.684 258.166,180.956 251.893 C 179.026 251.246,178.500 251.137,178.500 251.383 M160.722 265.001 C 160.669 268.578,160.792 270.387,161.248 272.769 C 164.124 287.795,178.665 301.898,193.564 304.110 C 196.195 304.501,200.131 304.592,201.189 304.288 C 201.686 304.145,199.279 301.651,181.252 283.626 L 160.750 263.126 160.722 265.001 M278.557 306.417 C 278.030 306.630,277.478 307.949,277.642 308.604 C 278.016 310.093,280.111 310.660,281.032 309.522 C 282.360 307.883,280.552 305.615,278.557 306.417 " stroke="none" fill="#37474f" fill-rule="evenodd"></path><path id="path2" d="" stroke="none" fill="#0000ff" fill-rule="evenodd"></path><path id="path3" d="M340.359 109.313 L 339.625 110.125 340.438 109.391 C 341.195 108.706,341.365 108.500,341.172 108.500 C 341.129 108.500,340.763 108.866,340.359 109.313 M335.743 113.938 L 334.125 115.625 335.813 114.007 C 336.741 113.117,337.500 112.358,337.500 112.320 C 337.500 112.136,337.245 112.370,335.743 113.938 M113.867 335.813 L 112.375 337.375 113.938 335.883 C 114.797 335.062,115.500 334.359,115.500 334.320 C 115.500 334.136,115.253 334.361,113.867 335.813 " stroke="none" fill="#246d6d" fill-rule="evenodd"></path><path id="path4" d="M137.871 137.500 C 137.871 153.519,137.901 160.072,137.937 152.063 C 137.974 144.053,137.974 130.947,137.937 122.938 C 137.901 114.928,137.871 121.481,137.871 137.500 M250.813 188.672 C 251.053 188.735,251.447 188.735,251.688 188.672 C 251.928 188.609,251.731 188.558,251.250 188.558 C 250.769 188.558,250.572 188.609,250.813 188.672 M288.440 203.177 C 288.751 203.237,289.201 203.234,289.440 203.172 C 289.679 203.109,289.425 203.060,288.875 203.063 C 288.325 203.066,288.129 203.117,288.440 203.177 M293.440 203.427 C 293.751 203.487,294.201 203.484,294.440 203.422 C 294.679 203.359,294.425 203.310,293.875 203.313 C 293.325 203.316,293.129 203.367,293.440 203.427 M298.440 203.677 C 298.751 203.737,299.201 203.734,299.440 203.672 C 299.679 203.609,299.425 203.560,298.875 203.563 C 298.325 203.566,298.129 203.617,298.440 203.677 M303.188 203.926 C 303.497 203.986,304.003 203.986,304.313 203.926 C 304.622 203.867,304.369 203.818,303.750 203.818 C 303.131 203.818,302.878 203.867,303.188 203.926 M308.690 204.177 C 309.001 204.237,309.451 204.234,309.690 204.172 C 309.929 204.109,309.675 204.060,309.125 204.063 C 308.575 204.066,308.379 204.117,308.690 204.177 M313.440 204.427 C 313.751 204.487,314.201 204.484,314.440 204.422 C 314.679 204.359,314.425 204.310,313.875 204.313 C 313.325 204.316,313.129 204.367,313.440 204.427 M318.940 204.677 C 319.251 204.737,319.701 204.734,319.940 204.672 C 320.179 204.609,319.925 204.560,319.375 204.563 C 318.825 204.566,318.629 204.617,318.940 204.677 M323.938 204.926 C 324.247 204.986,324.753 204.986,325.063 204.926 C 325.372 204.867,325.119 204.818,324.500 204.818 C 323.881 204.818,323.628 204.867,323.938 204.926 M187.125 289.500 C 195.237 297.613,201.930 304.250,201.998 304.250 C 202.067 304.250,195.487 297.613,187.375 289.500 C 179.263 281.387,172.570 274.750,172.502 274.750 C 172.433 274.750,179.013 281.387,187.125 289.500 M205.808 288.500 C 205.808 288.981,205.859 289.178,205.922 288.938 C 205.985 288.697,205.985 288.303,205.922 288.063 C 205.859 287.822,205.808 288.019,205.808 288.500 " stroke="none" fill="#855749" fill-rule="evenodd"></path><path id="path5" d="M194.000 41.648 C 153.622 43.878,120.092 57.892,91.584 84.455 C 37.999 134.382,25.884 217.104,63.001 279.625 C 64.144 281.550,65.244 283.407,65.446 283.751 C 65.809 284.369,65.762 284.430,62.220 288.011 C 57.389 292.894,53.000 298.855,53.000 300.534 C 53.000 300.774,52.894 301.036,52.764 301.116 C 52.514 301.271,51.348 304.936,50.613 307.875 C 48.667 315.657,51.853 331.016,56.240 335.000 C 56.316 335.069,56.874 335.800,57.480 336.625 C 64.745 346.514,80.714 352.394,92.125 349.382 C 92.950 349.164,93.963 348.923,94.375 348.845 C 99.681 347.849,106.037 343.815,112.125 337.579 C 115.710 333.907,115.532 334.012,116.754 334.838 C 120.422 337.314,131.476 343.066,137.476 345.620 C 214.948 378.594,304.163 345.905,341.738 270.777 C 365.881 222.506,363.682 164.461,335.972 118.578 C 333.876 115.108,333.825 115.690,336.438 113.261 C 346.368 104.028,350.067 96.016,349.892 84.125 C 349.641 67.193,337.420 53.200,320.394 50.351 C 314.948 49.440,304.237 50.667,301.625 52.502 C 301.488 52.598,300.992 52.807,300.524 52.964 C 299.715 53.237,295.765 55.408,295.500 55.725 C 295.431 55.808,294.718 56.317,293.916 56.858 C 293.113 57.398,290.976 59.295,289.166 61.073 C 287.356 62.851,285.519 64.634,285.084 65.035 L 284.292 65.765 281.959 64.344 C 256.256 48.689,222.801 40.057,194.000 41.648 M230.821 63.844 C 236.347 65.502,241.693 69.088,244.972 73.338 C 245.945 74.600,246.224 74.785,248.452 75.645 C 329.764 107.027,359.373 208.824,307.579 278.924 C 306.298 280.658,306.250 280.782,306.250 282.329 C 306.250 284.162,305.682 287.755,305.087 289.684 C 304.768 290.720,304.747 291.070,304.987 291.360 C 305.689 292.205,303.297 295.492,298.517 300.255 C 288.627 310.108,281.281 314.738,271.543 317.255 C 269.013 317.909,269.089 317.979,269.750 315.625 C 270.424 313.224,270.615 313.260,267.375 315.171 C 232.924 335.482,188.660 339.065,152.014 324.510 L 150.653 323.969 148.264 324.786 C 136.679 328.747,123.274 320.239,119.417 306.477 C 119.394 306.396,117.969 305.200,116.250 303.821 C 83.188 277.282,64.632 235.977,66.745 193.625 L 67.044 187.625 66.146 186.139 C 58.403 173.320,64.182 151.130,76.861 144.993 C 78.881 144.015,78.967 143.937,79.502 142.621 C 81.032 138.851,86.559 129.424,90.787 123.375 C 116.702 86.291,161.519 64.214,205.821 66.708 L 210.267 66.958 212.344 65.898 C 218.070 62.976,225.262 62.177,230.821 63.844 M319.459 67.391 C 321.364 67.872,324.063 69.022,325.125 69.804 C 332.934 75.557,335.404 85.006,331.252 93.250 C 329.995 95.746,329.671 96.172,326.947 98.910 L 324.247 101.625 323.562 100.750 C 318.802 94.664,309.008 84.617,302.625 79.271 C 300.425 77.429,298.625 75.834,298.625 75.727 C 298.625 75.524,301.932 72.075,303.160 70.998 C 307.385 67.293,313.616 65.914,319.459 67.391 M163.318 129.250 C 163.318 129.869,163.367 130.122,163.426 129.813 C 163.486 129.503,163.486 128.997,163.426 128.688 C 163.367 128.378,163.318 128.631,163.318 129.250 M78.120 301.250 C 83.848 308.148,91.387 315.714,98.375 321.580 C 101.945 324.577,101.849 323.988,99.206 326.672 C 94.285 331.671,89.877 333.552,84.013 333.158 C 80.327 332.910,75.837 331.233,73.840 329.358 C 73.683 329.211,73.233 328.817,72.840 328.483 C 72.447 328.149,71.619 327.256,71.000 326.500 C 70.381 325.744,69.807 325.069,69.723 325.000 C 69.639 324.931,69.169 324.031,68.679 323.000 C 66.139 317.663,66.172 312.081,68.777 306.584 C 69.729 304.575,75.342 298.082,75.782 298.482 C 75.869 298.561,76.921 299.806,78.120 301.250 " stroke="none" fill="#607d8b" fill-rule="evenodd"></path><path id="path6" d="M198.063 66.686 C 199.128 66.733,200.872 66.733,201.938 66.686 C 203.003 66.639,202.131 66.601,200.000 66.601 C 197.869 66.601,196.997 66.639,198.063 66.686 M101.859 109.563 L 101.125 110.375 101.938 109.641 C 102.695 108.956,102.865 108.750,102.672 108.750 C 102.629 108.750,102.263 109.116,101.859 109.563 M297.250 108.828 C 297.250 108.871,297.616 109.237,298.063 109.641 L 298.875 110.375 298.141 109.563 C 297.456 108.805,297.250 108.635,297.250 108.828 M246.359 132.813 L 245.625 133.625 246.438 132.891 C 246.884 132.487,247.250 132.121,247.250 132.078 C 247.250 131.885,247.044 132.055,246.359 132.813 M295.813 190.672 C 296.053 190.735,296.447 190.735,296.688 190.672 C 296.928 190.609,296.731 190.558,296.250 190.558 C 295.769 190.558,295.572 190.609,295.813 190.672 M66.601 200.000 C 66.601 202.131,66.639 203.003,66.686 201.938 C 66.733 200.872,66.733 199.128,66.686 198.063 C 66.639 196.997,66.601 197.869,66.601 200.000 M333.351 200.000 C 333.351 202.131,333.389 203.003,333.436 201.938 C 333.483 200.872,333.483 199.128,333.436 198.063 C 333.389 196.997,333.351 197.869,333.351 200.000 M319.609 216.813 L 318.875 217.625 319.688 216.891 C 320.134 216.487,320.500 216.121,320.500 216.078 C 320.500 215.885,320.294 216.055,319.609 216.813 M166.625 269.000 C 169.785 272.163,172.427 274.750,172.496 274.750 C 172.565 274.750,170.035 272.163,166.875 269.000 C 163.715 265.837,161.073 263.250,161.004 263.250 C 160.935 263.250,163.465 265.837,166.625 269.000 M101.750 290.328 C 101.750 290.371,102.116 290.737,102.563 291.141 L 103.375 291.875 102.641 291.063 C 101.956 290.305,101.750 290.135,101.750 290.328 M170.750 291.328 C 170.750 291.371,171.116 291.737,171.563 292.141 L 172.375 292.875 171.641 292.063 C 170.956 291.305,170.750 291.135,170.750 291.328 M108.250 296.828 C 108.250 296.871,108.616 297.237,109.063 297.641 L 109.875 298.375 109.141 297.563 C 108.456 296.805,108.250 296.635,108.250 296.828 M198.063 333.436 C 199.128 333.483,200.872 333.483,201.938 333.436 C 203.003 333.389,202.131 333.351,200.000 333.351 C 197.869 333.351,196.997 333.389,198.063 333.436 " stroke="none" fill="#808f7f" fill-rule="evenodd"></path><path id="path7" d="M199.688 145.922 C 199.227 146.043,199.013 153.476,199.426 155.000 C 199.564 155.509,200.951 147.590,200.992 146.063 C 201.000 145.753,200.530 145.702,199.688 145.922 M251.250 151.625 C 250.643 152.244,250.202 152.750,250.271 152.750 C 250.340 152.750,250.893 152.244,251.500 151.625 C 252.107 151.006,252.548 150.500,252.479 150.500 C 252.410 150.500,251.857 151.006,251.250 151.625 M188.739 151.459 L 188.158 151.929 190.730 154.965 C 193.378 158.089,193.906 158.597,193.043 157.188 C 192.770 156.741,191.820 155.163,190.933 153.682 L 189.320 150.988 188.739 151.459 M208.317 156.108 C 202.953 159.342,202.273 159.806,203.875 159.132 C 204.425 158.901,207.012 157.860,209.625 156.819 C 215.162 154.613,214.906 154.777,214.390 153.779 C 213.847 152.729,214.040 152.655,208.317 156.108 M182.646 158.161 C 182.559 158.387,182.519 158.590,182.557 158.613 C 182.594 158.635,183.075 158.991,183.625 159.403 C 187.288 162.150,187.512 162.221,185.256 159.915 C 182.988 157.599,182.887 157.531,182.646 158.161 M204.211 163.734 C 204.671 164.030,207.388 165.443,210.248 166.874 L 215.449 169.477 215.701 168.801 C 216.339 167.091,217.411 167.624,206.268 164.114 C 205.109 163.749,203.984 163.393,203.768 163.323 C 203.552 163.254,203.751 163.439,204.211 163.734 M252.563 176.922 C 252.803 176.985,253.197 176.985,253.438 176.922 C 253.678 176.859,253.481 176.808,253.000 176.808 C 252.519 176.808,252.322 176.859,252.563 176.922 M120.500 192.341 C 120.500 192.528,120.109 197.050,119.632 202.389 C 119.154 207.728,118.792 212.125,118.826 212.159 C 118.860 212.194,119.998 207.773,121.355 202.335 C 123.383 194.206,123.760 192.409,123.473 192.228 C 122.887 191.857,120.500 191.947,120.500 192.341 M98.907 202.887 C 98.513 203.512,98.231 204.054,98.282 204.091 C 98.624 204.342,109.869 212.247,110.875 212.942 C 111.602 213.446,109.563 211.290,106.000 207.791 C 98.934 200.850,99.811 201.456,98.907 202.887 M132.625 208.504 C 127.950 211.953,124.013 214.897,123.875 215.045 C 123.648 215.291,130.887 211.643,137.125 208.370 C 138.500 207.648,140.442 206.649,141.441 206.149 L 143.258 205.240 142.897 204.557 C 142.699 204.182,142.219 203.505,141.831 203.053 L 141.125 202.232 132.625 208.504 M291.690 203.427 C 292.001 203.487,292.451 203.484,292.690 203.422 C 292.929 203.359,292.675 203.310,292.125 203.313 C 291.575 203.316,291.379 203.367,291.690 203.427 M296.813 203.672 C 297.053 203.735,297.447 203.735,297.688 203.672 C 297.928 203.609,297.731 203.558,297.250 203.558 C 296.769 203.558,296.572 203.609,296.813 203.672 M301.563 203.922 C 301.803 203.985,302.197 203.985,302.438 203.922 C 302.678 203.859,302.481 203.808,302.000 203.808 C 301.519 203.808,301.322 203.859,301.563 203.922 M307.063 204.172 C 307.303 204.235,307.697 204.235,307.938 204.172 C 308.178 204.109,307.981 204.058,307.500 204.058 C 307.019 204.058,306.822 204.109,307.063 204.172 M311.813 204.422 C 312.053 204.485,312.447 204.485,312.688 204.422 C 312.928 204.359,312.731 204.308,312.250 204.308 C 311.769 204.308,311.572 204.359,311.813 204.422 M317.313 204.672 C 317.553 204.735,317.947 204.735,318.188 204.672 C 318.428 204.609,318.231 204.558,317.750 204.558 C 317.269 204.558,317.072 204.609,317.313 204.672 M322.313 204.922 C 322.553 204.985,322.947 204.985,323.188 204.922 C 323.428 204.859,323.231 204.808,322.750 204.808 C 322.269 204.808,322.072 204.859,322.313 204.922 M95.571 222.521 C 95.646 223.082,95.751 223.584,95.803 223.637 C 95.912 223.745,108.779 222.805,108.904 222.679 C 108.979 222.604,96.554 221.483,95.780 221.495 C 95.520 221.499,95.468 221.754,95.571 222.521 M105.875 234.374 C 105.737 234.420,103.955 234.708,101.913 235.013 L 98.201 235.569 98.353 236.329 C 98.437 236.747,98.540 237.123,98.582 237.165 C 98.624 237.208,100.620 236.578,103.017 235.765 C 105.414 234.953,107.094 234.289,106.750 234.289 C 106.406 234.289,106.013 234.327,105.875 234.374 M283.563 260.166 C 283.206 260.310,283.133 265.859,283.423 270.750 L 283.594 273.625 284.533 267.250 C 285.698 259.346,285.684 259.996,284.688 260.020 C 284.241 260.031,283.734 260.096,283.563 260.166 M269.321 267.563 L 268.806 268.125 271.800 271.625 C 273.448 273.550,275.080 275.462,275.428 275.875 L 276.061 276.625 275.412 275.500 C 270.410 266.839,270.217 266.586,269.321 267.563 M295.250 273.409 C 291.469 275.678,288.270 277.637,288.142 277.763 C 288.014 277.888,291.462 276.558,295.805 274.808 L 303.700 271.625 303.038 270.438 C 302.226 268.984,303.313 268.570,295.250 273.409 M261.620 276.006 C 261.075 276.608,260.902 276.424,264.375 278.925 C 268.208 281.685,268.225 281.671,265.004 278.408 C 263.425 276.809,262.121 275.500,262.105 275.500 C 262.090 275.500,261.871 275.728,261.620 276.006 M292.000 284.626 C 293.994 285.681,297.620 287.546,300.059 288.772 L 304.494 290.999 304.831 290.187 C 305.016 289.740,305.240 289.086,305.328 288.732 L 305.487 288.089 297.306 285.507 C 292.807 284.087,288.956 282.876,288.750 282.816 C 288.544 282.757,290.006 283.571,292.000 284.626 " stroke="none" fill="#cc5e5e" fill-rule="evenodd"></path><path id="path8" d="M144.856 115.855 C 143.028 116.650,140.366 120.020,138.750 123.585 L 138.000 125.239 138.000 146.036 C 138.000 157.475,138.062 166.771,138.138 166.695 C 138.214 166.620,141.336 158.385,145.075 148.396 L 151.875 130.234 151.708 127.304 C 151.223 118.773,148.521 114.259,144.856 115.855 M200.664 148.381 C 200.441 149.828,200.121 152.035,199.955 153.285 C 199.527 156.502,199.289 155.472,199.268 150.313 C 199.248 145.480,199.396 145.765,197.233 146.396 C 194.830 147.096,189.500 150.309,189.500 151.057 C 189.500 151.262,191.910 155.419,193.198 157.438 C 193.974 158.652,193.192 157.870,190.747 154.984 L 188.191 151.968 187.561 152.547 C 187.214 152.865,186.045 154.134,184.963 155.368 L 182.996 157.611 185.185 159.846 C 187.522 162.231,187.321 162.167,183.510 159.311 L 182.396 158.475 181.949 159.050 C 181.398 159.758,177.393 165.294,175.420 168.075 C 173.786 170.378,171.499 174.763,171.502 175.585 C 171.511 177.524,174.948 181.375,175.730 180.322 C 178.489 176.606,179.782 173.941,180.436 170.625 C 181.028 167.627,183.003 165.575,189.536 161.170 C 198.311 155.255,202.475 155.295,202.495 161.297 L 202.500 162.969 201.688 162.845 C 200.335 162.640,195.953 169.053,190.052 179.874 L 186.781 185.872 188.023 186.152 C 189.605 186.508,189.567 186.449,189.128 187.896 C 188.445 190.150,188.486 190.160,192.689 188.780 C 200.121 186.340,209.471 179.314,214.808 172.160 C 216.474 169.928,216.734 170.205,209.535 166.533 C 206.202 164.833,203.513 163.404,203.559 163.358 C 203.605 163.312,206.451 164.168,209.884 165.260 C 213.316 166.352,216.144 167.247,216.167 167.248 C 216.374 167.258,216.750 164.305,216.748 162.675 C 216.746 159.629,215.265 154.130,214.606 154.720 C 214.479 154.834,212.238 155.778,209.625 156.819 C 207.012 157.860,204.425 158.899,203.875 159.129 C 203.325 159.358,202.988 159.439,203.125 159.307 C 203.521 158.927,213.564 153.000,213.811 153.000 C 214.241 153.000,211.669 149.998,210.399 149.018 C 208.703 147.710,206.237 146.577,204.103 146.125 C 200.964 145.460,201.134 145.348,200.664 148.381 M254.125 149.476 C 250.833 151.374,246.882 156.719,245.514 161.125 C 242.824 169.788,246.126 176.625,253.000 176.625 C 261.844 176.625,265.701 164.583,260.388 153.564 C 258.230 149.090,256.618 148.038,254.125 149.476 M197.444 181.389 C 198.119 181.861,198.193 183.122,197.586 183.793 C 197.040 184.396,195.875 184.375,195.250 183.750 C 193.868 182.368,195.829 180.258,197.444 181.389 M115.755 192.031 C 110.164 192.679,103.949 196.145,100.444 200.571 L 99.640 201.586 105.882 207.697 C 109.441 211.181,111.588 213.437,110.875 212.943 C 110.188 212.467,107.134 210.316,104.090 208.164 C 97.769 203.695,98.218 203.882,97.556 205.438 C 95.880 209.370,94.461 220.338,95.500 221.326 C 95.569 221.392,98.631 221.704,102.306 222.021 C 105.981 222.337,108.950 222.633,108.905 222.679 C 108.859 222.724,106.584 222.924,103.849 223.122 C 101.113 223.321,98.172 223.552,97.313 223.637 C 95.934 223.772,95.750 223.738,95.750 223.353 C 95.750 223.113,95.698 222.969,95.634 223.033 C 95.464 223.202,96.386 228.359,97.281 232.253 L 98.058 235.632 101.342 235.094 C 107.667 234.059,107.807 234.108,103.125 235.718 C 97.996 237.482,98.212 236.212,101.386 245.973 C 106.822 262.687,108.860 266.800,112.115 267.623 C 115.341 268.439,119.632 267.750,120.177 266.328 C 120.380 265.801,118.854 261.248,117.493 258.318 C 116.234 255.607,114.299 252.841,112.036 250.515 C 110.006 248.430,109.860 248.161,109.368 245.615 C 107.704 236.995,108.671 220.342,111.116 215.517 C 113.288 211.231,117.437 210.969,121.877 214.837 L 122.875 215.706 122.028 216.588 L 121.182 217.469 122.376 221.297 C 125.209 230.375,127.525 235.960,134.501 250.539 L 137.570 256.953 139.172 255.594 C 141.027 254.021,140.797 253.964,142.857 256.515 L 144.455 258.495 145.209 256.685 C 148.586 248.571,150.138 239.138,149.512 230.529 C 148.746 219.989,147.065 210.216,145.344 206.292 C 144.504 204.376,146.059 203.769,128.000 213.068 C 125.594 214.307,123.794 215.150,124.000 214.941 C 124.793 214.141,140.892 202.420,141.202 202.418 C 142.572 202.411,135.216 196.494,131.681 194.759 C 128.937 193.413,121.982 191.265,123.473 192.225 C 123.760 192.409,123.385 194.197,121.355 202.335 C 119.998 207.773,118.860 212.194,118.826 212.159 C 118.792 212.125,119.154 207.728,119.632 202.389 C 120.109 197.050,120.500 192.536,120.500 192.358 C 120.500 192.180,120.753 191.986,121.063 191.926 C 122.109 191.725,117.639 191.813,115.755 192.031 M285.692 203.993 C 279.854 206.163,275.500 209.581,275.500 211.995 C 275.500 212.806,280.938 214.956,286.894 216.501 L 289.662 217.219 298.519 214.382 C 322.401 206.732,326.310 205.500,326.690 205.500 C 326.937 205.500,327.005 205.414,326.863 205.284 C 326.732 205.166,323.700 204.937,320.125 204.777 C 316.550 204.616,311.488 204.375,308.875 204.242 C 285.777 203.059,288.136 203.084,285.692 203.993 M143.350 239.349 C 145.050 240.059,145.517 241.848,144.360 243.222 C 143.252 244.539,141.013 244.426,140.257 243.014 C 139.497 241.593,140.372 239.458,141.832 239.174 C 142.131 239.116,142.407 239.053,142.446 239.034 C 142.484 239.015,142.891 239.157,143.350 239.349 M281.500 260.525 C 278.112 261.398,269.347 266.433,270.238 266.995 C 270.395 267.095,275.260 275.096,275.940 276.375 C 276.163 276.794,275.741 276.313,272.263 272.188 C 270.437 270.022,268.863 268.250,268.766 268.250 C 268.330 268.250,262.250 274.920,262.250 275.398 C 262.250 275.519,263.516 276.897,265.063 278.461 C 268.208 281.642,268.103 281.664,264.015 278.677 L 261.154 276.587 260.379 277.606 C 259.952 278.166,258.236 280.538,256.566 282.875 C 254.896 285.212,252.796 288.137,251.898 289.375 C 249.942 292.073,247.263 297.225,247.078 298.645 C 246.771 301.007,249.911 305.250,251.967 305.250 C 253.689 305.250,258.274 296.115,258.869 291.500 C 259.223 288.743,263.464 284.685,271.419 279.488 C 282.296 272.382,287.487 272.674,287.528 280.394 C 287.539 282.636,287.603 282.527,286.432 282.263 L 285.503 282.053 283.175 285.214 C 279.657 289.989,278.243 292.083,276.315 295.375 C 274.163 299.050,267.836 310.604,267.049 312.297 C 267.005 312.391,267.661 312.605,268.506 312.771 C 270.382 313.140,270.422 313.233,269.762 315.641 C 269.110 318.015,268.971 317.917,271.878 317.143 C 277.253 315.713,282.717 313.209,287.001 310.213 C 294.428 305.020,305.825 293.360,305.162 291.632 C 305.094 291.455,301.323 289.415,296.782 287.100 C 292.242 284.785,288.555 282.861,288.591 282.826 C 288.626 282.790,292.405 283.949,296.988 285.401 C 306.236 288.331,305.598 288.288,305.927 286.002 C 306.509 281.950,305.856 276.451,304.403 273.163 C 303.628 271.411,304.639 271.216,295.660 274.855 C 291.447 276.562,288.000 277.916,288.000 277.863 C 288.000 277.811,291.066 275.945,294.813 273.717 C 298.559 271.489,301.775 269.531,301.958 269.366 C 302.785 268.621,298.311 264.139,295.000 262.395 C 291.384 260.490,285.519 259.260,285.486 260.400 C 285.479 260.661,285.050 263.744,284.533 267.250 L 283.594 273.625 283.423 270.750 C 283.133 265.859,283.206 260.310,283.563 260.166 C 284.216 259.902,283.305 260.061,281.500 260.525 M172.500 261.688 C 170.115 262.879,170.013 267.604,172.244 273.547 C 172.701 274.765,202.574 305.215,202.215 304.096 C 202.165 303.943,198.525 295.899,194.125 286.220 L 186.125 268.622 184.195 266.873 C 179.386 262.517,174.859 260.510,172.500 261.688 M281.032 306.654 C 281.685 307.245,281.843 308.344,281.400 309.201 C 280.757 310.446,279.137 310.660,278.114 309.636 C 276.220 307.743,279.045 304.856,281.032 306.654 " stroke="none" fill="#e57373" fill-rule="evenodd"></path><path id="path9" d="M192.563 66.922 C 192.803 66.985,193.197 66.985,193.438 66.922 C 193.678 66.859,193.481 66.808,193.000 66.808 C 192.519 66.808,192.322 66.859,192.563 66.922 M206.440 66.927 C 206.751 66.987,207.201 66.984,207.440 66.922 C 207.679 66.859,207.425 66.810,206.875 66.813 C 206.325 66.816,206.129 66.867,206.440 66.927 M242.750 71.125 C 243.216 71.606,243.654 72.000,243.723 72.000 C 243.792 72.000,243.466 71.606,243.000 71.125 C 242.534 70.644,242.096 70.250,242.027 70.250 C 241.958 70.250,242.284 70.644,242.750 71.125 M105.625 105.750 C 103.979 107.400,102.689 108.750,102.758 108.750 C 102.827 108.750,104.229 107.400,105.875 105.750 C 107.521 104.100,108.811 102.750,108.742 102.750 C 108.673 102.750,107.271 104.100,105.625 105.750 M294.125 105.750 C 295.771 107.400,297.173 108.750,297.242 108.750 C 297.311 108.750,296.021 107.400,294.375 105.750 C 292.729 104.100,291.327 102.750,291.258 102.750 C 291.189 102.750,292.479 104.100,294.125 105.750 M261.500 126.578 C 261.500 126.621,261.866 126.987,262.313 127.391 L 263.125 128.125 262.391 127.313 C 261.706 126.555,261.500 126.385,261.500 126.578 M273.584 159.000 C 273.584 160.031,273.628 160.453,273.682 159.938 C 273.736 159.422,273.736 158.578,273.682 158.063 C 273.628 157.547,273.584 157.969,273.584 159.000 M151.116 159.063 L 149.875 160.375 151.188 159.134 C 152.407 157.982,152.615 157.750,152.428 157.750 C 152.389 157.750,151.798 158.341,151.116 159.063 M134.740 164.063 C 135.353 164.716,135.887 165.250,135.927 165.250 C 136.115 165.250,135.916 165.026,134.813 163.990 L 133.625 162.875 134.740 164.063 M232.063 164.625 C 232.066 165.175,232.117 165.371,232.177 165.060 C 232.237 164.749,232.234 164.299,232.172 164.060 C 232.109 163.821,232.060 164.075,232.063 164.625 M232.068 167.250 C 232.068 167.869,232.117 168.122,232.176 167.813 C 232.236 167.503,232.236 166.997,232.176 166.688 C 232.117 166.378,232.068 166.631,232.068 167.250 M294.190 190.677 C 294.501 190.737,294.951 190.734,295.190 190.672 C 295.429 190.609,295.175 190.560,294.625 190.563 C 294.075 190.566,293.879 190.617,294.190 190.677 M297.313 190.672 C 297.553 190.735,297.947 190.735,298.188 190.672 C 298.428 190.609,298.231 190.558,297.750 190.558 C 297.269 190.558,297.072 190.609,297.313 190.672 M66.808 193.000 C 66.808 193.481,66.859 193.678,66.922 193.438 C 66.985 193.197,66.985 192.803,66.922 192.563 C 66.859 192.322,66.808 192.519,66.808 193.000 M333.058 193.000 C 333.058 193.481,333.109 193.678,333.172 193.438 C 333.235 193.197,333.235 192.803,333.172 192.563 C 333.109 192.322,333.058 192.519,333.058 193.000 M66.808 207.000 C 66.808 207.481,66.859 207.678,66.922 207.438 C 66.985 207.197,66.985 206.803,66.922 206.563 C 66.859 206.322,66.808 206.519,66.808 207.000 M333.058 207.000 C 333.058 207.481,333.109 207.678,333.172 207.438 C 333.235 207.197,333.235 206.803,333.172 206.563 C 333.109 206.322,333.058 206.519,333.058 207.000 M105.625 294.250 C 106.995 295.625,108.172 296.750,108.241 296.750 C 108.309 296.750,107.245 295.625,105.875 294.250 C 104.505 292.875,103.328 291.750,103.259 291.750 C 103.191 291.750,104.255 292.875,105.625 294.250 M197.182 304.680 C 197.626 304.736,198.413 304.737,198.932 304.682 C 199.451 304.628,199.088 304.583,198.125 304.582 C 197.162 304.581,196.738 304.625,197.182 304.680 M192.563 333.172 C 192.803 333.235,193.197 333.235,193.438 333.172 C 193.678 333.109,193.481 333.058,193.000 333.058 C 192.519 333.058,192.322 333.109,192.563 333.172 M206.440 333.177 C 206.751 333.237,207.201 333.234,207.440 333.172 C 207.679 333.109,207.425 333.060,206.875 333.063 C 206.325 333.066,206.129 333.117,206.440 333.177 " stroke="none" fill="#baaf69" fill-rule="evenodd"></path><path id="path10" d="M151.827 128.625 C 151.829 129.450,151.876 129.757,151.931 129.308 C 151.987 128.859,151.986 128.184,151.929 127.808 C 151.872 127.432,151.826 127.800,151.827 128.625 M182.363 166.813 L 181.375 167.875 182.438 166.887 C 183.426 165.968,183.615 165.750,183.426 165.750 C 183.385 165.750,182.907 166.228,182.363 166.813 M210.869 176.563 L 208.875 178.625 210.938 176.631 C 212.853 174.779,213.114 174.500,212.932 174.500 C 212.894 174.500,211.966 175.428,210.869 176.563 M139.250 200.125 C 139.716 200.606,140.154 201.000,140.223 201.000 C 140.292 201.000,139.966 200.606,139.500 200.125 C 139.034 199.644,138.596 199.250,138.527 199.250 C 138.458 199.250,138.784 199.644,139.250 200.125 M276.987 208.938 L 276.125 209.875 277.063 209.013 C 277.935 208.212,278.115 208.000,277.924 208.000 C 277.882 208.000,277.460 208.422,276.987 208.938 M115.440 212.177 C 115.751 212.237,116.201 212.234,116.440 212.172 C 116.679 212.109,116.425 212.060,115.875 212.063 C 115.325 212.066,115.129 212.117,115.440 212.177 M95.313 221.125 C 95.316 221.675,95.367 221.871,95.427 221.560 C 95.487 221.249,95.484 220.799,95.422 220.560 C 95.359 220.321,95.310 220.575,95.313 221.125 M108.590 232.000 C 108.590 233.306,108.632 233.841,108.684 233.188 C 108.735 232.534,108.735 231.466,108.684 230.813 C 108.632 230.159,108.590 230.694,108.590 232.000 M149.563 231.375 C 149.566 231.925,149.617 232.121,149.677 231.810 C 149.737 231.499,149.734 231.049,149.672 230.810 C 149.609 230.571,149.560 230.825,149.563 231.375 M108.584 236.750 C 108.584 237.781,108.628 238.203,108.682 237.688 C 108.736 237.172,108.736 236.328,108.682 235.813 C 108.628 235.297,108.584 235.719,108.584 236.750 M149.568 237.500 C 149.568 238.119,149.617 238.372,149.676 238.063 C 149.736 237.753,149.736 237.247,149.676 236.938 C 149.617 236.628,149.568 236.881,149.568 237.500 M138.359 256.313 L 137.625 257.125 138.438 256.391 C 138.884 255.987,139.250 255.621,139.250 255.578 C 139.250 255.385,139.044 255.555,138.359 256.313 M185.000 267.625 C 185.466 268.106,185.904 268.500,185.973 268.500 C 186.042 268.500,185.716 268.106,185.250 267.625 C 184.784 267.144,184.346 266.750,184.277 266.750 C 184.208 266.750,184.534 267.144,185.000 267.625 M267.493 269.188 L 265.875 270.875 267.563 269.257 C 269.130 267.755,269.364 267.500,269.180 267.500 C 269.142 267.500,268.383 268.259,267.493 269.188 M114.938 268.176 C 115.247 268.236,115.753 268.236,116.063 268.176 C 116.372 268.117,116.119 268.068,115.500 268.068 C 114.881 268.068,114.628 268.117,114.938 268.176 M261.116 287.563 L 259.875 288.875 261.188 287.634 C 262.407 286.482,262.615 286.250,262.428 286.250 C 262.389 286.250,261.798 286.841,261.116 287.563 " stroke="none" fill="#f1a062" fill-rule="evenodd"></path><path id="path11" d="M186.859 153.063 L 186.125 153.875 186.938 153.141 C 187.695 152.456,187.865 152.250,187.672 152.250 C 187.629 152.250,187.263 152.616,186.859 153.063 " stroke="none" fill="#f3b8ad" fill-rule="evenodd"></path><path id="path12" d="M71.987 148.688 L 71.125 149.625 72.063 148.763 C 72.935 147.962,73.115 147.750,72.924 147.750 C 72.882 147.750,72.460 148.172,71.987 148.688 M62.582 171.875 C 62.583 172.838,62.628 173.201,62.682 172.682 C 62.737 172.163,62.736 171.376,62.680 170.932 C 62.625 170.488,62.581 170.912,62.582 171.875 M141.813 325.679 C 142.191 325.736,142.809 325.736,143.188 325.679 C 143.566 325.622,143.256 325.575,142.500 325.575 C 141.744 325.575,141.434 325.622,141.813 325.679 " stroke="none" fill="#d3cda8" fill-rule="evenodd"></path><path id="path13" d="M193.250 66.918 C 181.108 67.581,169.348 69.769,158.302 73.418 L 153.979 74.846 155.122 75.136 C 159.915 76.353,159.017 83.250,154.065 83.250 C 150.875 83.250,148.862 79.395,150.705 76.813 C 151.443 75.778,151.618 75.740,147.441 77.519 C 121.380 88.619,98.651 108.878,84.393 133.716 C 82.437 137.123,78.907 143.996,79.047 144.124 C 79.090 144.163,79.784 144.073,80.590 143.925 C 87.567 142.644,95.709 148.783,104.249 161.764 C 113.880 176.403,111.272 193.355,98.474 199.307 C 89.095 203.670,76.143 199.506,68.708 189.738 L 67.375 187.987 67.205 189.181 C 67.111 189.838,66.956 193.244,66.860 196.750 C 65.727 238.020,83.984 277.517,116.274 303.653 C 119.635 306.373,119.493 306.312,119.227 304.938 C 116.917 292.996,125.658 277.537,135.125 276.820 C 141.250 276.357,147.154 280.769,154.049 290.964 C 162.338 303.221,161.410 316.891,151.880 322.912 C 150.533 323.763,150.515 323.836,151.563 324.192 C 152.009 324.344,154.006 325.045,156.000 325.751 C 192.820 338.779,234.305 334.636,268.059 314.559 C 270.252 313.255,270.251 313.263,268.308 312.862 C 267.520 312.699,266.898 312.455,266.925 312.319 C 266.976 312.070,271.460 303.757,274.646 298.004 C 276.564 294.542,280.323 288.804,283.378 284.676 L 285.375 281.978 286.438 282.129 L 287.500 282.281 287.500 280.686 C 287.500 275.675,284.826 273.469,280.460 274.875 C 273.778 277.027,259.628 287.509,259.126 290.678 C 258.337 295.666,257.146 298.625,254.207 302.904 C 252.261 305.736,252.327 305.694,250.857 305.027 C 249.262 304.302,246.743 300.658,246.753 299.089 C 246.758 298.397,248.308 294.975,249.746 292.483 L 251.014 290.286 250.508 289.455 C 248.725 286.531,252.088 282.259,255.241 283.444 C 255.811 283.658,255.958 283.533,257.206 281.775 C 268.088 266.451,276.620 259.948,285.875 259.922 C 290.927 259.908,295.606 261.847,299.298 265.484 L 301.470 267.625 302.173 267.189 C 303.708 266.235,306.444 266.864,307.608 268.437 C 309.040 270.373,307.639 274.750,305.587 274.750 C 305.299 274.750,305.233 274.902,305.344 275.313 C 305.428 275.622,305.626 276.550,305.784 277.375 C 306.414 280.650,306.114 280.680,308.664 277.086 C 358.273 207.159,329.524 108.613,250.147 76.505 C 245.802 74.747,245.968 74.732,247.201 76.777 C 253.366 87.005,249.905 94.927,237.427 99.146 C 224.416 103.545,213.781 102.761,206.676 96.877 C 197.573 89.338,198.497 75.596,208.591 68.375 C 209.360 67.825,209.992 67.308,209.995 67.226 C 210.008 66.867,198.174 66.648,193.250 66.918 M221.958 71.490 C 206.573 74.293,203.826 90.167,218.174 93.351 C 225.491 94.974,241.589 90.258,241.778 86.437 C 242.151 78.853,230.358 69.960,221.958 71.490 M198.162 84.060 C 199.796 85.180,200.484 87.588,199.638 89.225 C 197.565 93.233,191.750 91.976,191.750 87.521 C 191.750 84.117,195.383 82.156,198.162 84.060 M164.925 92.475 C 169.021 95.441,165.191 101.725,160.641 99.504 C 156.703 97.581,158.101 91.750,162.500 91.750 C 163.675 91.750,164.100 91.877,164.925 92.475 M264.666 100.659 C 266.480 101.835,267.121 103.706,266.377 105.654 C 265.051 109.127,260.023 109.170,258.642 105.720 C 257.151 101.994,261.321 98.490,264.666 100.659 M230.770 108.662 C 234.172 110.023,234.096 115.063,230.654 116.377 C 226.248 118.060,222.959 112.275,226.582 109.215 C 227.715 108.258,229.253 108.055,230.770 108.662 M138.011 116.688 L 138.023 124.875 138.727 123.354 C 144.201 111.533,150.497 113.123,151.834 126.664 L 152.125 129.607 155.372 120.928 C 157.157 116.155,158.693 112.250,158.784 112.250 C 158.875 112.250,159.455 113.234,160.074 114.438 C 169.242 132.273,158.555 159.909,140.024 166.285 C 138.070 166.957,137.866 166.905,136.003 165.253 C 123.022 153.744,121.132 128.857,132.128 114.206 C 133.678 112.140,137.265 108.500,137.751 108.500 C 137.911 108.500,138.004 111.420,138.011 116.688 M260.397 125.734 C 263.139 127.307,266.983 132.938,269.367 138.875 C 269.864 140.113,270.376 141.378,270.504 141.686 C 270.736 142.243,270.752 142.238,272.490 141.115 C 284.330 133.455,300.636 137.171,308.470 149.313 C 309.069 150.241,309.599 151.000,309.648 151.000 C 309.698 151.000,310.106 150.775,310.556 150.501 C 312.899 149.073,316.091 150.687,316.632 153.573 C 317.028 155.685,315.084 158.250,313.087 158.250 L 312.250 158.250 312.250 159.978 C 312.250 167.128,306.175 171.926,293.581 174.722 C 284.444 176.750,278.689 176.411,272.977 173.508 C 271.076 172.542,271.220 172.499,270.547 174.233 C 266.726 184.089,257.413 190.001,248.061 188.509 C 226.828 185.122,226.735 151.401,247.903 131.248 C 253.765 125.666,257.447 124.042,260.397 125.734 M289.666 125.659 C 291.480 126.835,292.121 128.706,291.377 130.654 C 290.051 134.127,285.023 134.170,283.642 130.720 C 282.151 126.994,286.321 123.490,289.666 125.659 M105.770 133.662 C 109.172 135.023,109.096 140.063,105.654 141.377 C 101.248 143.060,97.959 137.275,101.582 134.215 C 102.715 133.258,104.253 133.055,105.770 133.662 M189.145 133.724 C 193.720 135.802,191.247 142.952,186.450 141.515 C 181.899 140.151,182.775 133.261,187.500 133.261 C 187.844 133.261,188.584 133.469,189.145 133.724 M283.214 145.611 C 278.925 146.509,272.661 150.449,273.105 151.971 C 273.466 153.207,273.772 158.686,273.618 161.153 L 273.443 163.955 274.534 164.760 C 277.823 167.187,283.433 168.450,285.432 167.215 C 286.194 166.744,286.534 166.698,288.256 166.831 C 294.826 167.337,304.324 162.795,303.933 159.332 C 303.042 151.421,291.614 143.854,283.214 145.611 M204.750 146.121 C 213.755 148.515,218.954 158.645,216.104 168.243 C 215.802 169.261,215.784 169.615,216.021 169.901 C 216.955 171.026,207.404 180.758,201.528 184.668 C 198.158 186.911,192.666 189.274,189.403 189.886 C 188.373 190.080,188.360 190.042,188.872 188.352 C 189.396 186.626,189.366 186.524,188.284 186.352 C 186.490 186.065,186.443 186.245,190.006 179.715 C 193.783 172.792,195.063 170.662,197.570 167.125 C 200.560 162.906,200.878 162.569,201.745 162.696 C 202.497 162.806,202.500 162.802,202.499 161.591 C 202.491 154.933,197.150 155.464,186.930 163.138 C 182.238 166.660,180.950 168.159,180.577 170.531 C 180.078 173.695,176.939 179.905,175.574 180.429 C 174.548 180.823,172.741 179.174,171.754 176.942 L 171.243 175.787 171.786 174.337 C 172.556 172.279,174.428 169.116,176.704 166.030 C 177.781 164.570,179.600 162.081,180.746 160.500 C 189.128 148.937,197.185 144.111,204.750 146.121 M164.666 150.659 C 166.480 151.835,167.121 153.706,166.377 155.654 C 165.051 159.127,160.023 159.170,158.642 155.720 C 157.151 151.994,161.321 148.490,164.666 150.659 M83.125 154.063 C 83.125 157.579,79.707 159.531,76.893 157.621 C 75.765 156.856,75.805 156.832,74.531 158.977 C 68.066 169.859,70.591 182.843,80.466 189.487 C 94.068 198.638,106.405 187.258,100.062 171.410 C 97.721 165.561,89.228 155.027,85.250 153.040 C 83.107 151.969,83.125 151.960,83.125 154.063 M81.448 175.669 C 84.848 178.188,83.257 183.250,79.065 183.250 C 74.866 183.250,73.492 177.513,77.208 175.492 C 78.383 174.853,80.463 174.940,81.448 175.669 M97.739 175.494 C 101.520 177.423,100.164 183.250,95.935 183.250 C 93.651 183.250,92.008 181.848,91.804 179.726 C 91.465 176.192,94.652 173.920,97.739 175.494 M139.666 175.659 C 141.480 176.835,142.121 178.706,141.377 180.654 C 140.051 184.127,135.023 184.170,133.642 180.720 C 132.151 176.994,136.321 173.490,139.666 175.659 M314.666 175.659 C 316.480 176.835,317.121 178.706,316.377 180.654 C 315.051 184.127,310.023 184.170,308.642 180.720 C 307.151 176.994,311.321 173.490,314.666 175.659 M230.770 183.662 C 234.172 185.023,234.096 190.063,230.654 191.377 C 226.248 193.060,222.959 187.275,226.582 184.215 C 227.715 183.258,229.253 183.055,230.770 183.662 M300.375 190.760 C 311.249 191.785,320.882 196.654,326.145 203.783 C 327.247 205.277,327.232 205.465,325.777 208.404 C 321.816 216.404,314.353 222.707,304.843 226.084 L 303.062 226.717 302.343 225.957 C 299.156 222.583,291.552 217.751,288.250 216.999 C 284.529 216.153,276.146 213.222,275.419 212.514 C 275.047 212.151,275.727 210.367,276.649 209.290 C 278.164 207.520,281.025 205.771,285.125 204.108 C 287.635 203.090,288.012 203.159,277.153 202.649 C 272.630 202.437,268.861 202.195,268.778 202.111 C 268.522 201.855,272.522 198.169,274.511 196.827 C 281.693 191.981,290.762 189.853,300.375 190.760 M126.319 192.580 C 132.493 194.208,139.200 198.814,142.500 203.693 C 143.238 204.784,143.497 204.988,144.157 204.994 C 147.009 205.017,150.671 228.907,149.525 240.011 C 148.961 245.477,147.102 252.817,145.238 256.938 C 144.370 258.857,144.610 258.908,142.609 256.382 L 140.930 254.263 140.027 254.982 C 139.531 255.377,138.852 255.993,138.519 256.350 C 137.615 257.320,137.645 257.357,135.214 252.313 C 127.922 237.186,126.144 233.019,123.212 224.190 L 120.967 217.430 121.885 216.490 L 122.803 215.550 121.006 214.288 C 112.910 208.603,109.192 214.025,108.819 232.061 C 108.568 244.223,109.178 247.462,112.339 250.741 C 116.533 255.092,121.412 265.078,120.069 266.563 C 117.684 269.199,111.112 268.633,109.195 265.627 L 108.176 264.028 107.481 264.986 C 106.178 266.785,103.706 267.195,101.826 265.924 C 98.479 263.661,100.074 258.427,104.123 258.388 L 105.445 258.375 105.098 257.500 C 104.023 254.791,98.086 236.087,97.362 233.125 C 92.100 211.620,96.680 198.367,111.265 192.896 C 114.808 191.567,121.909 191.418,126.319 192.580 M164.666 200.659 C 166.480 201.835,167.121 203.706,166.377 205.654 C 165.051 209.127,160.023 209.170,158.642 205.720 C 157.151 201.994,161.321 198.490,164.666 200.659 M197.739 200.494 C 201.520 202.423,200.164 208.250,195.935 208.250 C 193.651 208.250,192.008 206.848,191.804 204.726 C 191.465 201.192,194.652 198.920,197.739 200.494 M89.145 208.724 C 93.720 210.802,91.247 217.952,86.450 216.515 C 81.899 215.151,82.775 208.261,87.500 208.261 C 87.844 208.261,88.584 208.469,89.145 208.724 M248.162 209.060 C 249.796 210.180,250.484 212.588,249.638 214.225 C 247.565 218.233,241.750 216.976,241.750 212.521 C 241.750 209.117,245.383 207.156,248.162 209.060 M229.625 211.501 C 243.655 215.963,250.828 234.435,244.286 249.259 C 237.452 264.746,216.834 273.398,208.003 264.484 C 200.818 257.231,199.187 234.785,205.025 223.500 C 210.123 213.644,220.480 208.593,229.625 211.501 M281.216 217.267 C 284.700 219.248,283.557 224.554,279.563 224.937 C 275.197 225.357,273.330 219.808,276.997 217.313 C 278.087 216.571,279.957 216.551,281.216 217.267 M221.625 219.337 C 216.959 220.554,213.120 224.633,211.129 230.488 C 208.799 237.337,210.015 253.173,213.229 257.844 C 217.150 263.543,231.525 256.423,236.382 246.375 C 242.573 233.569,233.161 216.326,221.625 219.337 M264.666 225.659 C 266.480 226.835,267.121 228.706,266.377 230.654 C 265.051 234.127,260.023 234.170,258.642 230.720 C 257.151 226.994,261.321 223.490,264.666 225.659 M314.666 225.659 C 316.480 226.835,317.121 228.706,316.377 230.654 C 315.051 234.127,310.023 234.170,308.642 230.720 C 307.151 226.994,311.321 223.490,314.666 225.659 M223.003 242.313 C 226.639 244.787,224.886 250.236,220.552 249.927 C 215.233 249.547,215.564 241.780,220.901 241.756 C 221.819 241.752,222.408 241.908,223.003 242.313 M156.448 250.669 C 159.848 253.188,158.257 258.250,154.065 258.250 C 149.866 258.250,148.492 252.513,152.208 250.492 C 153.383 249.853,155.463 249.940,156.448 250.669 M256.448 250.669 C 259.848 253.188,258.257 258.250,254.065 258.250 C 249.866 258.250,248.492 252.513,252.208 250.492 C 253.383 249.853,255.463 249.940,256.448 250.669 M289.666 250.659 C 291.480 251.835,292.121 253.706,291.377 255.654 C 290.051 259.127,285.023 259.170,283.642 255.720 C 282.151 251.994,286.321 248.490,289.666 250.659 M181.908 252.044 C 199.814 258.494,211.020 283.872,203.714 301.423 C 202.501 304.336,202.390 304.424,199.688 304.625 C 180.768 306.027,160.486 286.423,160.504 266.750 C 160.508 262.303,160.008 262.138,166.651 268.776 L 172.481 274.602 171.590 271.863 C 169.486 265.391,170.444 261.250,174.044 261.250 C 175.020 261.250,175.183 261.163,175.574 260.438 C 176.507 258.708,178.831 257.859,180.606 258.601 C 181.131 258.820,181.597 259.000,181.641 259.000 C 181.686 259.000,180.984 257.397,180.083 255.438 C 177.698 250.253,177.574 250.482,181.908 252.044 M183.269 263.285 C 183.259 263.648,183.043 264.200,182.791 264.512 C 182.331 265.079,182.332 265.080,183.978 266.508 C 186.027 268.287,186.004 268.341,184.524 265.225 C 183.637 263.358,183.283 262.811,183.269 263.285 M223.162 284.060 C 224.796 285.180,225.484 287.588,224.638 289.225 C 222.565 293.233,216.750 291.976,216.750 287.521 C 216.750 284.117,220.383 282.156,223.162 284.060 M134.817 285.361 C 130.734 287.185,126.903 295.665,127.323 301.949 C 128.204 315.148,145.272 322.903,150.270 312.375 C 152.975 306.677,150.160 297.581,143.724 291.225 C 142.939 290.449,142.121 289.476,141.908 289.063 C 140.703 286.734,136.572 284.577,134.817 285.361 M173.162 309.060 C 174.796 310.180,175.484 312.588,174.638 314.225 C 172.565 318.233,166.750 316.976,166.750 312.521 C 166.750 309.117,170.383 307.156,173.162 309.060 M248.162 309.060 C 249.796 310.180,250.484 312.588,249.638 314.225 C 247.565 318.233,241.750 316.976,241.750 312.521 C 241.750 309.117,245.383 307.156,248.162 309.060 M206.216 317.267 C 209.700 319.248,208.557 324.554,204.563 324.937 C 200.197 325.357,198.330 319.808,201.997 317.313 C 203.087 316.571,204.957 316.551,206.216 317.267 " stroke="none" fill="#ffd54f" fill-rule="evenodd"></path><path id="path14" d="M221.239 63.259 C 207.331 65.191,197.952 76.651,200.904 88.105 C 203.319 97.474,214.758 103.589,226.452 101.764 C 246.737 98.597,254.176 90.553,248.079 78.375 C 243.100 68.430,231.410 61.846,221.239 63.259 M227.940 71.779 C 234.832 73.438,242.042 81.076,241.778 86.437 C 241.589 90.258,225.491 94.974,218.174 93.351 C 208.669 91.241,205.687 82.676,212.221 76.248 C 216.222 72.311,222.608 70.496,227.940 71.779 M152.350 75.462 C 148.472 77.277,149.787 83.250,154.065 83.250 C 158.250 83.250,159.848 78.188,156.456 75.676 C 155.497 74.965,153.621 74.868,152.350 75.462 M194.087 83.718 C 190.841 85.235,190.962 90.030,194.280 91.358 C 197.848 92.785,201.357 88.857,199.487 85.530 C 198.401 83.599,196.039 82.806,194.087 83.718 M160.065 92.481 C 157.530 94.318,157.843 98.137,160.641 99.504 C 165.191 101.725,169.021 95.441,164.925 92.475 C 163.492 91.436,161.504 91.439,160.065 92.481 M260.424 100.578 C 258.567 101.703,257.856 103.754,258.642 105.720 C 260.023 109.170,265.051 109.127,266.377 105.654 C 267.771 102.006,263.741 98.570,260.424 100.578 M227.875 108.526 C 225.467 109.266,224.275 112.267,225.513 114.470 C 227.035 117.178,230.717 117.422,232.519 114.935 C 234.866 111.695,231.714 107.345,227.875 108.526 M285.424 125.578 C 283.567 126.703,282.856 128.754,283.642 130.720 C 285.023 134.170,290.051 134.127,291.377 130.654 C 292.771 127.006,288.741 123.570,285.424 125.578 M102.875 133.526 C 100.467 134.266,99.275 137.267,100.513 139.470 C 102.035 142.178,105.717 142.422,107.519 139.935 C 109.866 136.695,106.714 132.345,102.875 133.526 M185.855 133.724 C 181.280 135.802,183.753 142.952,188.550 141.515 C 193.101 140.151,192.225 133.261,187.500 133.261 C 187.156 133.261,186.416 133.469,185.855 133.724 M281.776 137.370 C 276.822 138.496,270.449 141.609,270.869 142.697 C 271.250 143.684,272.453 148.251,272.743 149.812 L 273.056 151.498 274.375 150.187 C 279.581 145.007,287.558 143.903,294.309 147.429 C 300.225 150.519,305.387 158.321,303.517 161.348 C 301.931 163.913,292.829 167.183,288.256 166.831 C 286.534 166.698,286.194 166.744,285.432 167.215 C 283.446 168.442,278.025 167.252,274.690 164.856 C 274.009 164.366,273.424 164.001,273.391 164.045 C 273.359 164.089,273.187 164.969,273.010 166.000 C 272.833 167.031,272.372 168.942,271.986 170.246 C 271.600 171.550,271.304 172.636,271.329 172.658 C 273.927 175.007,282.896 176.618,288.500 175.743 C 304.162 173.297,312.250 167.929,312.250 159.978 L 312.250 158.250 313.087 158.250 C 315.084 158.250,317.028 155.685,316.632 153.573 C 316.091 150.687,312.899 149.073,310.556 150.501 C 310.106 150.775,309.698 151.000,309.648 151.000 C 309.599 151.000,309.069 150.241,308.470 149.313 C 302.900 140.680,290.879 135.302,281.776 137.370 M79.531 144.144 C 70.125 146.674,62.364 160.129,62.818 173.120 C 63.678 197.770,94.555 211.074,106.719 192.036 C 112.006 183.761,111.055 172.110,104.249 161.764 C 95.229 148.054,86.946 142.150,79.531 144.144 M160.424 150.578 C 158.567 151.703,157.856 153.754,158.642 155.720 C 160.023 159.170,165.051 159.127,166.377 155.654 C 167.771 152.006,163.741 148.570,160.424 150.578 M85.250 153.040 C 89.228 155.027,97.721 165.561,100.062 171.410 C 106.405 187.258,94.068 198.638,80.466 189.487 C 70.591 182.843,68.066 169.859,74.531 158.977 C 75.805 156.832,75.765 156.856,76.893 157.621 C 79.707 159.531,83.125 157.579,83.125 154.063 C 83.125 151.960,83.107 151.969,85.250 153.040 M77.208 175.492 C 73.492 177.513,74.866 183.250,79.065 183.250 C 84.418 183.250,84.784 175.432,79.448 175.081 C 78.474 175.017,77.883 175.125,77.208 175.492 M94.113 175.352 C 91.093 176.667,90.896 181.091,93.784 182.733 C 95.043 183.449,96.913 183.429,98.003 182.688 C 102.247 179.799,98.805 173.308,94.113 175.352 M135.424 175.578 C 133.567 176.703,132.856 178.754,133.642 180.720 C 135.023 184.170,140.051 184.127,141.377 180.654 C 142.771 177.006,138.741 173.570,135.424 175.578 M310.424 175.578 C 308.567 176.703,307.856 178.754,308.642 180.720 C 310.023 184.170,315.051 184.127,316.377 180.654 C 317.771 177.006,313.741 173.570,310.424 175.578 M227.875 183.526 C 225.467 184.266,224.275 187.267,225.513 189.470 C 227.035 192.178,230.717 192.422,232.519 189.935 C 234.866 186.695,231.714 182.345,227.875 183.526 M160.424 200.578 C 158.567 201.703,157.856 203.754,158.642 205.720 C 160.023 209.170,165.051 209.127,166.377 205.654 C 167.771 202.006,163.741 198.570,160.424 200.578 M194.113 200.352 C 191.093 201.667,190.896 206.091,193.784 207.733 C 195.043 208.449,196.913 208.429,198.003 207.688 C 202.247 204.799,198.805 198.308,194.113 200.352 M85.855 208.724 C 81.280 210.802,83.753 217.952,88.550 216.515 C 93.101 215.151,92.225 208.261,87.500 208.261 C 87.156 208.261,86.416 208.469,85.855 208.724 M244.087 208.718 C 240.841 210.235,240.962 215.030,244.280 216.358 C 247.848 217.785,251.357 213.857,249.487 210.530 C 248.401 208.599,246.039 207.806,244.087 208.718 M219.702 211.243 C 208.302 214.141,201.608 224.766,201.665 239.875 C 201.721 254.933,204.622 263.351,210.904 266.683 C 220.738 271.899,238.353 262.705,244.286 249.259 C 252.797 229.973,237.723 206.663,219.702 211.243 M276.997 217.313 C 273.330 219.808,275.197 225.357,279.563 224.937 C 283.557 224.554,284.700 219.248,281.216 217.267 C 279.957 216.551,278.087 216.571,276.997 217.313 M228.081 219.751 C 236.838 223.053,241.080 236.657,236.382 246.375 C 231.525 256.423,217.150 263.543,213.229 257.844 C 210.015 253.173,208.799 237.337,211.129 230.488 C 214.111 221.722,221.275 217.184,228.081 219.751 M260.424 225.578 C 258.567 226.703,257.856 228.754,258.642 230.720 C 260.023 234.170,265.051 234.127,266.377 230.654 C 267.771 227.006,263.741 223.570,260.424 225.578 M310.424 225.578 C 308.567 226.703,307.856 228.754,308.642 230.720 C 310.023 234.170,315.051 234.127,316.377 230.654 C 317.771 227.006,313.741 223.570,310.424 225.578 M218.750 242.274 C 215.242 244.331,216.491 249.637,220.552 249.927 C 224.886 250.236,226.639 244.787,223.003 242.313 C 221.914 241.572,219.978 241.554,218.750 242.274 M152.208 250.492 C 148.492 252.513,149.866 258.250,154.065 258.250 C 159.418 258.250,159.784 250.432,154.448 250.081 C 153.474 250.017,152.883 250.125,152.208 250.492 M252.208 250.492 C 248.492 252.513,249.866 258.250,254.065 258.250 C 259.418 258.250,259.784 250.432,254.448 250.081 C 253.474 250.017,252.883 250.125,252.208 250.492 M285.424 250.578 C 283.567 251.703,282.856 253.754,283.642 255.720 C 285.023 259.170,290.051 259.127,291.377 255.654 C 292.771 252.006,288.741 248.570,285.424 250.578 M102.875 258.526 C 100.467 259.266,99.275 262.267,100.513 264.470 C 101.985 267.089,105.785 267.409,107.461 265.055 C 108.165 264.066,108.193 264.219,106.742 261.181 C 105.277 258.115,104.948 257.888,102.875 258.526 M177.875 258.526 C 177.018 258.789,176.300 259.351,175.680 260.243 C 175.077 261.110,175.086 261.123,176.695 261.710 C 177.490 262.000,179.093 262.864,180.257 263.630 L 182.375 265.024 182.813 264.484 C 184.811 262.019,181.096 257.535,177.875 258.526 M302.188 267.143 C 301.341 267.602,301.340 267.552,302.243 268.865 C 303.153 270.187,304.649 273.135,304.882 274.065 C 305.110 274.971,305.756 274.949,306.835 274.001 C 310.470 270.810,306.426 264.843,302.188 267.143 M133.406 277.028 C 123.503 279.353,116.174 296.388,120.069 308.028 C 126.704 327.858,152.039 331.995,158.495 314.303 C 161.150 307.029,159.674 299.281,154.049 290.964 C 146.587 279.931,139.995 275.481,133.406 277.028 M219.087 283.718 C 215.841 285.235,215.962 290.030,219.280 291.358 C 222.848 292.785,226.357 288.857,224.487 285.530 C 223.401 283.599,221.039 282.806,219.087 283.718 M252.875 283.526 C 250.483 284.261,249.238 287.371,250.504 289.449 L 251.006 290.272 253.270 287.236 C 254.516 285.566,255.590 284.057,255.657 283.883 C 255.879 283.304,254.268 283.097,252.875 283.526 M138.120 285.783 C 139.537 286.522,141.450 288.179,141.908 289.063 C 142.121 289.476,142.939 290.449,143.724 291.225 C 154.130 301.502,153.681 316.653,142.955 317.199 C 130.345 317.841,122.888 301.534,130.484 289.928 C 133.435 285.420,135.389 284.360,138.120 285.783 M169.087 308.718 C 165.841 310.235,165.962 315.030,169.280 316.358 C 172.848 317.785,176.357 313.857,174.487 310.530 C 173.401 308.599,171.039 307.806,169.087 308.718 M244.087 308.718 C 240.841 310.235,240.962 315.030,244.280 316.358 C 247.848 317.785,251.357 313.857,249.487 310.530 C 248.401 308.599,246.039 307.806,244.087 308.718 M201.997 317.313 C 198.330 319.808,200.197 325.357,204.563 324.937 C 208.557 324.554,209.700 319.248,206.216 317.267 C 204.957 316.551,203.087 316.571,201.997 317.313 " stroke="none" fill="#ffecb3" fill-rule="evenodd"></path></g></svg>