<?xml version="1.0" encoding="iso-8859-1"?>
<!-- Generator: Adobe Illustrator 19.0.0, SVG Export Plug-In . SVG Version: 6.00 Build 0)  -->
<svg version="1.1" id="Layer_1" xmlns="http://www.w3.org/2000/svg" xmlns:xlink="http://www.w3.org/1999/xlink" x="0px" y="0px"
	 viewBox="0 0 331.915 331.915" style="enable-background:new 0 0 331.915 331.915;" xml:space="preserve">
<g>
	<g>
		<path style="fill:#F2D383;" d="M45.055,256.252c-10.459-9.924-26.98-9.765-37.236,0.491c-10.426,10.425-10.425,27.328,0,37.753
			c5.934,5.934,13.965,8.485,21.707,7.664c-0.821,7.742,1.731,15.773,7.664,21.707c10.426,10.425,27.328,10.425,37.753,0
			c10.256-10.256,10.415-26.776,0.491-37.236l44.434-44.434L89.49,211.818L45.055,256.252z"/>
		<path style="fill:#B3874F;" d="M52.383,248.925c3.525,6.284,7.938,12.205,13.283,17.551c5.18,5.18,10.898,9.486,16.965,12.957
			l37.236-37.237L89.49,211.818L52.383,248.925z"/>
	</g>
	<path style="fill:#5A3C3D;" d="M158.99,5.755C94.488,70.257,54.604,148.004,54.603,209.619l0.001,0.001
		c0,17.381,6.632,34.763,19.893,48.025c13.279,13.28,30.691,19.91,48.096,19.892c61.605-0.029,139.317-39.907,203.795-104.384
		c7.369-7.369,7.369-19.317,0-26.686L185.675,5.755C178.307-1.613,166.358-1.613,158.99,5.755z"/>
	<path style="fill:#B3874F;" d="M225.88,70.569l-32.808,0.001l-0.001-13.649c0.001-1.181-0.957-2.139-2.139-2.139
		c-1.18-0.001-2.139,0.958-2.139,2.139v13.648h-25.76v-35.1c0-1.181-0.959-2.139-2.139-2.139c-1.182,0-2.141,0.958-2.14,2.139v35.1
		h-17.581c-1.181,0-2.139,0.958-2.139,2.139s0.959,2.139,2.139,2.139l17.581-0.001v28.469l-3.994-0.001
		c-1.181-0.001-2.14,0.958-2.14,2.139c0,1.182,0.958,2.14,2.14,2.139h3.994v12.581c-0.001,1.181,0.958,2.139,2.139,2.139
		c0.591,0,1.126-0.239,1.513-0.626s0.627-0.922,0.627-1.513v-12.58l25.761-0.001l-0.001,34.033c0,1.182,0.957,2.14,2.14,2.139
		c0.59,0,1.125-0.239,1.513-0.626c0.387-0.387,0.626-0.922,0.627-1.513l-0.001-34.033h46.395c0.591,0,1.126-0.239,1.513-0.626
		s0.627-0.922,0.626-1.512c0.001-1.181-0.958-2.139-2.139-2.139l-46.394-0.001l-0.001-28.468l32.808,0.001
		c0.592,0,1.127-0.239,1.514-0.626c0.387-0.387,0.627-0.922,0.626-1.513C228.02,71.527,227.061,70.569,225.88,70.569z
		 M188.794,103.315h-25.76V74.847l25.76,0.001V103.315z"/>
	<path style="fill:#B3874F;" d="M224.462,191.03h-32.809v-13.648c0.002-1.182-0.957-2.14-2.139-2.139
		c-1.18-0.001-2.139,0.958-2.139,2.139v13.648h-25.76l-0.001-39.146c0.001-1.182-0.956-2.139-2.139-2.139
		c-1.181-0.001-2.14,0.958-2.139,2.139v39.146h-25.761v-4.567c0-1.181-0.957-2.139-2.139-2.139c-1.181-0.001-2.14,0.958-2.139,2.139
		v4.566H115.11c-1.182-0.001-2.141,0.958-2.14,2.139c-0.001,1.181,0.958,2.139,2.14,2.139h12.189v28.468H88.803
		c-1.181,0-2.139,0.958-2.139,2.139s0.958,2.14,2.139,2.139h38.496v20.672c0,1.181,0.957,2.139,2.139,2.139
		c0.591,0.001,1.125-0.239,1.513-0.626c0.388-0.387,0.627-0.922,0.626-1.513v-20.672h8.708c0.591,0,1.126-0.239,1.513-0.626
		c0.387-0.387,0.627-0.922,0.627-1.513c0-1.181-0.958-2.139-2.139-2.139l-8.709,0.001v-28.469h25.761l-0.001,28.468l-3.993,0.001
		c-1.181-0.001-2.14,0.958-2.139,2.139c-0.001,1.181,0.958,2.139,2.139,2.139h3.994v25.582c-0.001,1.181,0.958,2.139,2.14,2.139
		c0.59-0.001,1.125-0.24,1.512-0.626c0.387-0.387,0.627-0.922,0.627-1.513v-25.582h25.76v11.59c0,1.181,0.958,2.139,2.139,2.139
		c0.591,0.001,1.127-0.239,1.514-0.626c0.387-0.387,0.626-0.922,0.626-1.513v-11.59h13.171c0.59,0.001,1.125-0.239,1.512-0.626
		c0.387-0.387,0.627-0.922,0.627-1.513c0-1.182-0.957-2.139-2.139-2.139l-13.171,0.001v-28.469h32.808
		c0.592,0.001,1.126-0.239,1.514-0.626c0.387-0.387,0.627-0.922,0.625-1.513C226.601,191.988,225.643,191.03,224.462,191.03z
		 M187.376,223.776h-25.76v-28.468l25.76-0.001V223.776z"/>
</g>
<g>
</g>
<g>
</g>
<g>
</g>
<g>
</g>
<g>
</g>
<g>
</g>
<g>
</g>
<g>
</g>
<g>
</g>
<g>
</g>
<g>
</g>
<g>
</g>
<g>
</g>
<g>
</g>
<g>
</g>
</svg>
