<?xml version="1.0" encoding="iso-8859-1"?>
<!-- Generator: Adobe Illustrator 19.0.0, SVG Export Plug-In . SVG Version: 6.00 Build 0)  -->
<svg version="1.1" id="Layer_1" xmlns="http://www.w3.org/2000/svg" xmlns:xlink="http://www.w3.org/1999/xlink" x="0px" y="0px"
	 viewBox="0 0 392.032 392.032" style="enable-background:new 0 0 392.032 392.032;" xml:space="preserve">
<g>
	<g>
		<path style="fill:#997443;" d="M207.016,79.667c-1.535,0-3.071-0.586-4.242-1.758c-2.344-2.343-2.344-6.142,0-8.484l56.667-56.667
			c2.342-2.344,6.143-2.344,8.484,0c2.344,2.343,2.344,6.142,0,8.484l-56.667,56.667C210.087,79.081,208.551,79.667,207.016,79.667z
			"/>
		<path style="fill:#5A3C3D;" d="M267.925,12.758c-2.342-2.344-6.143-2.344-8.484,0L244.108,28.09
			c2.009,3.537,4.946,6.476,8.484,8.484l15.332-15.332C270.268,18.899,270.268,15.101,267.925,12.758z"/>
		<circle style="fill:#B3874F;" cx="263.683" cy="17" r="17"/>
	</g>
	<g>
		<path style="fill:#997443;" d="M185.016,79.667c1.535,0,3.071-0.586,4.242-1.758c2.344-2.343,2.344-6.142,0-8.484l-56.667-56.667
			c-2.342-2.344-6.143-2.344-8.484,0c-2.344,2.343-2.344,6.142,0,8.484l56.667,56.667C181.944,79.081,183.48,79.667,185.016,79.667z
			"/>
		<path style="fill:#5A3C3D;" d="M124.106,12.758c2.342-2.344,6.143-2.344,8.484,0l15.332,15.332
			c-2.009,3.537-4.946,6.476-8.484,8.484l-15.332-15.332C121.763,18.899,121.763,15.101,124.106,12.758z"/>
		<circle style="fill:#B3874F;" cx="128.349" cy="17" r="17"/>
	</g>
	<path style="fill:#B3874F;" d="M246.689,365.375h-8.808v0.014c-2.938-11.413-11.982-20.368-23.441-23.189V42.084h-36.85v300.115
		c-11.459,2.821-20.504,11.776-23.441,23.189v-0.014h-8.808c-8.725,0-15.797,7.072-15.797,15.797
		c0,8.724,7.072,10.859,15.797,10.859h14.048c8.724,0,15.797-2.136,15.797-10.859v-4.02c0-5.589,4.53-10.119,10.119-10.119h21.42
		c5.589,0,10.119,4.53,10.119,10.119v4.02c0,8.724,7.073,10.859,15.797,10.859h14.048c8.725,0,15.797-2.136,15.797-10.859
		C262.486,372.447,255.414,365.375,246.689,365.375z"/>
	<path style="fill:#997443;" d="M214.441,312.016c6.126,0,11.092,4.966,11.092,11.092s-4.966,11.092-11.092,11.092H177.59
		c-6.126,0-11.092-4.966-11.092-11.092s4.966-11.092,11.092-11.092H214.441z"/>
	<path style="fill:#997443;" d="M204.151,346.262c0-2.75-2.25-5-5-5h-6.27c-2.75,0-5,2.25-5,5v40.77c0,2.75,2.25,5,5,5h6.27
		c2.75,0,5-2.25,5-5V346.262z"/>
	<path style="fill:#997443;" d="M196.016,79.667c-3.314,0-6-2.687-6-6V17c0-3.314,2.686-6,6-6c3.313,0,6,2.686,6,6v56.667
		C202.016,76.98,199.329,79.667,196.016,79.667z"/>
	<path style="fill:#5A3C3D;" d="M196.016,11c-3.314,0-6,2.686-6,6v21.858c1.912,0.523,3.922,0.809,6,0.809s4.088-0.285,6-0.809V17
		C202.016,13.686,199.329,11,196.016,11z"/>
	<circle style="fill:#B3874F;" cx="196.016" cy="17" r="17"/>
</g>
<g>
</g>
<g>
</g>
<g>
</g>
<g>
</g>
<g>
</g>
<g>
</g>
<g>
</g>
<g>
</g>
<g>
</g>
<g>
</g>
<g>
</g>
<g>
</g>
<g>
</g>
<g>
</g>
<g>
</g>
</svg>
