<?xml version="1.0" encoding="iso-8859-1"?>
<!-- Generator: Adobe Illustrator 19.0.0, SVG Export Plug-In . SVG Version: 6.00 Build 0)  -->
<svg version="1.1" id="Layer_1" xmlns="http://www.w3.org/2000/svg" xmlns:xlink="http://www.w3.org/1999/xlink" x="0px" y="0px"
	 viewBox="0 0 383.663 383.663" style="enable-background:new 0 0 383.663 383.663;" xml:space="preserve">
<g>
	<g>
		<path style="fill:#F2D383;" d="M167.804,153.833c31.707,0,61.234-9.244,83.143-26.027c18.082-13.854,28.732-31.33,30.42-49.686
			c0.156-1.708,2.121-5.146,5.164-5.146c12.074,0,42.352,0,45.051,0c3.381,0,4.059,2.325,4.025,3.484
			c-1.109,36.09-19.398,69.449-51.787,94.26c-31.287,23.971-72.49,37.173-116.016,37.173c-43.525,0-84.729-13.202-116.018-37.173
			c-32.386-24.81-50.677-58.17-51.785-94.26c-0.033-1.159,0.645-3.484,4.025-3.484c2.697,0,32.975,0,45.051,0
			c3.041,0,5.008,3.438,5.164,5.146c1.685,18.355,12.336,35.831,30.42,49.686C106.57,144.589,136.095,153.833,167.804,153.833z"/>
		<path style="fill:#5A3C3D;" d="M167.804,142.453c40.133,0,76.805-16.56,93.5-41.71c1.051-1.579,3.238-4.548,7.045-2.607
			c3.064,1.564,42.353,22.8,57.541,31.015c3.674,1.987,3.953,6.793,2.9,8.552c-29.828,49.742-92.24,81.568-160.986,81.568
			S36.646,187.445,6.82,137.702c-1.057-1.759-0.775-6.564,2.897-8.552c15.189-8.215,54.479-29.45,57.543-31.015
			c3.807-1.94,5.994,1.028,7.045,2.607C90.999,125.894,127.671,142.453,167.804,142.453z"/>
		<path style="fill:#BF4132;" d="M204.124,129.105c-2.977,0-5.775,0.744-8.234,2.044l-0.002-0.005
			c-14.232,5.92-48.789,4.084-58.611,2.141c-0.137-0.029-0.273-0.057-0.41-0.084c-0.074-0.016-0.162-0.031-0.232-0.047l-0.004,0.011
			c-1.012-0.182-2.051-0.292-3.115-0.292c-9.75,0-17.652,7.904-17.652,17.653v39.712c0,9.75,7.902,17.653,17.652,17.653
			c9.748,0,17.652-7.903,17.652-17.653v-16.493c0-9.749,7.902-17.652,17.652-17.652c9.748,0,17.652,7.903,17.652,17.652v3.739
			c0,9.749,7.902,17.652,17.652,17.652s17.652-7.903,17.652-17.652v-30.727C221.777,137.009,213.874,129.105,204.124,129.105z"/>
	</g>
	<g>
		<path style="fill:#F2D383;" d="M215.859,245.25c31.709,0,61.236-9.243,83.143-26.027c18.084-13.854,28.734-31.329,30.42-49.685
			c0.158-1.709,2.123-5.147,5.166-5.147c12.074,0,42.352,0,45.051,0c3.379,0,4.059,2.325,4.023,3.485
			c-1.107,36.09-19.397,69.448-51.785,94.26c-31.289,23.971-72.49,37.172-116.018,37.172c-43.525,0-84.727-13.201-116.016-37.172
			c-32.389-24.812-50.678-58.17-51.787-94.26c-0.033-1.16,0.646-3.485,4.027-3.485c2.697,0,32.975,0,45.051,0
			c3.041,0,5.008,3.438,5.164,5.147c1.685,18.355,12.336,35.83,30.42,49.685C154.626,236.007,184.152,245.25,215.859,245.25z"/>
		<path style="fill:#5A3C3D;" d="M215.859,233.87c40.135,0,76.807-16.559,93.502-41.71c1.051-1.579,3.236-4.548,7.045-2.606
			c3.065,1.563,42.354,22.8,57.541,31.014c3.672,1.987,3.951,6.794,2.898,8.553c-29.828,49.742-92.238,81.568-160.986,81.568
			c-68.746,0-131.158-31.826-160.984-81.568c-1.055-1.759-0.773-6.566,2.898-8.553c15.189-8.214,54.478-29.45,57.543-31.014
			c3.805-1.941,5.994,1.027,7.043,2.606C139.054,217.312,175.726,233.87,215.859,233.87z"/>
		<path style="fill:#BF4132;" d="M252.181,220.522c-2.977,0-5.777,0.745-8.236,2.044v-0.004c-14.232,5.919-48.791,4.083-58.613,2.14
			c-0.135-0.029-0.271-0.057-0.408-0.083c-0.074-0.017-0.162-0.032-0.234-0.048l-0.002,0.011c-1.014-0.181-2.051-0.291-3.117-0.291
			c-9.748,0-17.652,7.903-17.652,17.652v39.713c0,9.749,7.904,17.652,17.652,17.652c9.75,0,17.652-7.903,17.652-17.652v-16.494
			c0-9.748,7.904-17.652,17.652-17.652c9.75,0,17.652,7.904,17.652,17.652v3.74c0,9.748,7.904,17.652,17.654,17.652
			c9.748,0,17.652-7.904,17.652-17.652v-30.727C269.833,228.426,261.929,220.522,252.181,220.522z"/>
	</g>
</g>
<g>
</g>
<g>
</g>
<g>
</g>
<g>
</g>
<g>
</g>
<g>
</g>
<g>
</g>
<g>
</g>
<g>
</g>
<g>
</g>
<g>
</g>
<g>
</g>
<g>
</g>
<g>
</g>
<g>
</g>
</svg>
