<?xml version="1.0" encoding="iso-8859-1"?>
<!-- Generator: Adobe Illustrator 19.0.0, SVG Export Plug-In . SVG Version: 6.00 Build 0)  -->
<svg version="1.1" id="Layer_1" xmlns="http://www.w3.org/2000/svg" xmlns:xlink="http://www.w3.org/1999/xlink" x="0px" y="0px"
	 viewBox="0 0 341.859 341.859" style="enable-background:new 0 0 341.859 341.859;" xml:space="preserve">
<g>
	<path style="fill:#D1D3D3;" d="M333.263,218.265c0-84.608-68.59-153.198-153.198-153.198S26.866,133.656,26.866,218.265H333.263z"
		/>
	<g>
		<path style="fill:#C3C6C8;" d="M274.12,163.931c2.849,2.85,7.47,2.85,10.317,0c2.851-2.847,2.849-7.466,0-10.317l-8.357-8.355
			c-2.847-2.852-7.468-2.852-10.315,0c-2.851,2.848-2.851,7.47,0,10.317L274.12,163.931z"/>
		<path style="fill:#C3C6C8;" d="M233.008,104.923c4.031,0,7.298-3.267,7.296-7.296c0.003-4.028-3.265-7.294-7.296-7.296
			l-11.817,0.002c-4.03-0.004-7.298,3.264-7.294,7.295c-0.002,4.029,3.266,7.297,7.295,7.295H233.008z"/>
		<path style="fill:#C3C6C8;" d="M173.905,129.913c2.851,2.85,7.471,2.85,10.318-0.001c2.85-2.847,2.85-7.466,0-10.317l-8.357-8.355
			c-2.848-2.851-7.469-2.851-10.316,0.001c-2.851,2.849-2.851,7.47,0,10.317L173.905,129.913z"/>
		<path style="fill:#C3C6C8;" d="M139.243,98.606c2.851-2.85,2.851-7.47,0-10.316c-2.847-2.852-7.466-2.85-10.317,0l-8.355,8.357
			c-2.852,2.847-2.852,7.468,0,10.314c2.848,2.852,7.47,2.852,10.317,0L139.243,98.606z"/>
		<path style="fill:#C3C6C8;" d="M224.962,154.382c2.851-2.85,2.851-7.47,0-10.316c-2.847-2.852-7.466-2.85-10.317,0l-8.355,8.357
			c-2.852,2.847-2.852,7.468,0,10.314c2.848,2.852,7.47,2.852,10.317,0L224.962,154.382z"/>
		<path style="fill:#C3C6C8;" d="M130.886,155.54c-2.85-2.851-7.47-2.851-10.316,0c-2.851,2.847-2.85,7.466,0,10.317l8.357,8.355
			c2.847,2.852,7.468,2.852,10.314,0c2.852-2.848,2.852-7.47,0-10.317L130.886,155.54z"/>
		<path style="fill:#C3C6C8;" d="M77.243,165.857c2.851-2.85,2.851-7.47,0-10.316c-2.847-2.852-7.466-2.85-10.317,0l-8.356,8.357
			c-2.851,2.847-2.851,7.468,0,10.314c2.848,2.852,7.47,2.852,10.317,0L77.243,165.857z"/>
	</g>
	<g>
		<path style="fill:#B3874F;" d="M136.575,232.763c0.85,1.252,0.538,2.991-0.694,3.869l-2.892,2.059
			c-1.23,0.876-2.978,0.603-3.88-0.61L0.535,65.767c-0.902-1.213-0.635-2.922,0.594-3.796l10.861-7.734
			c1.231-0.877,2.932-0.572,3.782,0.678L136.575,232.763z"/>
		<path style="fill:#997443;" d="M29.677,95.957c-3.505-3.872-7.875-6.059-12.059-7.298l2.215,2.969
			c2.967,1.219,5.882,3.025,8.315,5.713c3.114,3.438,5.114,7.952,6.002,13.477l2.451,3.286
			C36.039,106.519,33.726,100.432,29.677,95.957z M120.738,226.865l2.005,2.687c3.871,1.301,8.379,3.729,11.154,8.492l1.694-1.206
			C132.708,232.021,127.743,228.684,120.738,226.865z M34.277,82.157L31.7,78.365c-9.07-5.084-19.455-11.313-26.37-19.387
			L3.642,60.18c7.983,9.398,20.366,16.277,30.307,21.797C34.059,82.037,34.166,82.099,34.277,82.157z M66.572,138.541
			c2.513,3.248,6.3,5.857,11.308,7.811l-2.185-3.214c-3.662-1.835-6.411-4.122-8.202-6.854c-1.902-2.902-2.592-6.073-2.672-9.158
			l-1.983-2.918c-0.342,4.253,0.125,8.93,2.932,13.208C66.022,137.8,66.289,138.172,66.572,138.541z M37.627,95.583
			c-6.645-11.076-19.191-15.139-27.492-17.831c-0.295-0.094-0.581-0.188-0.866-0.28l2.138,2.863
			c7.921,2.614,18.682,6.699,24.454,16.31c4.555,7.585,5.746,15.478,6.898,23.11c0.167,1.104,0.334,2.198,0.507,3.281l2.765,3.705
			c-0.486-2.345-0.858-4.793-1.234-7.293C43.67,111.982,42.392,103.519,37.627,95.583z M127.654,219.63
			c-8.761-4.141-19.677-12.715-20.239-29.796l-1.937-2.851c-0.122,8.414,1.985,16.886,7.367,23.847
			c3.862,4.994,9.411,9.206,17.022,12.059L127.654,219.63z M92.027,175.283c-3.531-11.981-13.292-14.98-21.766-16.07l1.74,2.333
			c7.48,1.238,15.112,4.357,18.049,14.32c1.196,4.06,2.287,8.395,3.341,12.587c0.224,0.888,0.446,1.776,0.67,2.657l3.262,4.371
			c-0.665-2.485-1.302-5.015-1.934-7.53C94.33,183.739,93.236,179.382,92.027,175.283z M85.108,156.993l-1.996-2.939
			c-0.458-0.16-0.919-0.316-1.384-0.476c-4.452-1.518-9.497-3.236-14.529-7.679c-8.71-7.688-10.556-21.539-11.098-31.61
			l-2.205-3.246c0.32,9.204,1.311,23.387,8.649,32.878c0.979,1.264,2.07,2.448,3.29,3.523c5.342,4.714,10.594,6.505,15.228,8.084
			C82.483,156.013,83.831,156.476,85.108,156.993z"/>
	</g>
	<g>
		<path style="fill:#B3874F;" d="M155.161,217.604c0.592,1.392-0.049,3.039-1.427,3.662l-3.234,1.463
			c-1.376,0.624-3.038,0.018-3.69-1.346L53.848,27.524c-0.652-1.364-0.061-2.99,1.314-3.609l12.147-5.498
			c1.377-0.623,2.988,0.004,3.582,1.394L155.161,217.604z"/>
		<path style="fill:#997443;" d="M76.627,62.764c-2.693-4.475-6.56-7.461-10.427-9.483l1.602,3.339
			c2.677,1.769,5.189,4.104,7.059,7.208c2.393,3.975,3.485,8.789,3.293,14.381l1.772,3.697
			C80.834,74.354,79.738,67.935,76.627,62.764z M140.757,208.766l1.45,3.022c3.548,2.023,7.503,5.274,9.309,10.482l1.895-0.856
			C151.509,216.132,147.28,211.899,140.757,208.766z M83.8,50.11l-1.799-4.219c-7.92-6.736-16.91-14.85-22.14-24.103l-1.888,0.854
			c6.023,10.761,16.848,19.898,25.54,27.227C83.608,49.95,83.702,50.03,83.8,50.11z M104.625,111.659
			c1.841,3.672,5.054,6.962,9.591,9.844l-1.524-3.575c-3.24-2.506-5.497-5.28-6.728-8.305c-1.308-3.215-1.374-6.46-0.857-9.502
			l-1.384-3.246c-1.155,4.108-1.598,8.787,0.332,13.526C104.228,110.825,104.418,111.242,104.625,111.659z M84.5,63.93
			c-4.387-12.149-15.915-18.553-23.541-22.795c-0.27-0.15-0.534-0.296-0.795-0.442l1.546,3.224
			c7.269,4.091,17.04,10.172,20.853,20.715c3.008,8.32,2.656,16.295,2.315,24.007c-0.049,1.116-0.096,2.221-0.134,3.316l1.999,4.169
			c-0.025-2.395,0.082-4.869,0.193-7.396C87.27,81.185,87.647,72.635,84.5,63.93z M148.938,202.999
			c-7.799-5.752-16.858-16.269-14.118-33.138l-1.352-3.171c-1.741,8.233-1.306,16.953,2.635,24.819
			c2.827,5.645,7.46,10.848,14.38,15.114L148.938,202.999z M122.524,152.619c-1.156-12.438-10.157-17.263-18.262-19.963l1.259,2.623
			c7.102,2.657,13.988,7.188,14.95,17.53c0.392,4.214,0.628,8.678,0.854,12.995c0.048,0.914,0.096,1.827,0.145,2.735l2.359,4.919
			c-0.174-2.567-0.312-5.172-0.447-7.763C123.153,161.359,122.92,156.872,122.524,152.619z M119.259,133.338l-1.393-3.269
			c-0.418-0.245-0.841-0.487-1.266-0.734c-4.077-2.346-8.695-5.004-12.777-10.333c-7.065-9.222-6.208-23.17-4.799-33.156
			l-1.538-3.61c-1.459,9.094-3.221,23.201,2.151,33.928c0.718,1.43,1.561,2.802,2.55,4.092c4.333,5.655,9.142,8.425,13.385,10.867
			C116.872,131.87,118.105,132.584,119.259,133.338z"/>
	</g>
	<path style="fill:#E94F3D;" d="M341.859,184.377c0,76.936-62.369,139.305-139.305,139.305h-44.981
		c-76.935,0-139.305-62.369-139.305-139.305L341.859,184.377L341.859,184.377z"/>
	<path style="fill:#5A3C3D;" d="M41.236,261.011c24.92,37.755,67.716,62.671,116.338,62.671h44.981
		c48.622,0,91.418-24.916,116.338-62.671H41.236z"/>
</g>
<g>
</g>
<g>
</g>
<g>
</g>
<g>
</g>
<g>
</g>
<g>
</g>
<g>
</g>
<g>
</g>
<g>
</g>
<g>
</g>
<g>
</g>
<g>
</g>
<g>
</g>
<g>
</g>
<g>
</g>
</svg>
