<?xml version="1.0" encoding="iso-8859-1"?>
<!-- Generator: Adobe Illustrator 19.0.0, SVG Export Plug-In . SVG Version: 6.00 Build 0)  -->
<svg version="1.1" id="Layer_1" xmlns="http://www.w3.org/2000/svg" xmlns:xlink="http://www.w3.org/1999/xlink" x="0px" y="0px"
	 viewBox="0 0 344.863 344.863" style="enable-background:new 0 0 344.863 344.863;" xml:space="preserve">
<g>
	<g>
		<circle style="fill:#5C6670;" cx="80.271" cy="112.781" r="64.196"/>
		<path style="fill:#333E48;" d="M144.313,108.538H16.23c-0.092,1.404-0.155,2.815-0.155,4.243
			c0,35.454,28.742,64.195,64.196,64.195s64.195-28.741,64.195-64.195C144.467,111.354,144.403,109.942,144.313,108.538z"/>
		<polygon style="fill:#8CD5EF;" points="56.466,296.278 8.856,296.278 17.62,151.149 59.388,151.149 		"/>
		<polygon style="fill:#00B3E3;" points="104.076,296.278 56.466,296.278 59.388,151.149 101.155,151.149 		"/>
		<polygon style="fill:#8CD5EF;" points="151.686,296.278 104.076,296.278 101.155,151.149 142.922,151.149 		"/>
		<path style="fill:#5C6670;" d="M142.923,151.149c9.732,0,17.62-7.889,17.62-17.62s-7.889-17.62-17.62-17.62H17.62
			c-9.731,0-17.62,7.889-17.62,17.62s7.889,17.62,17.62,17.62H142.923z"/>
		<circle style="fill:#FFFFFF;" cx="64.204" cy="61.855" r="3.822"/>
		<circle style="fill:#FFFFFF;" cx="96.339" cy="61.855" r="3.822"/>
		<circle style="fill:#FFFFFF;" cx="80.271" cy="59.398" r="3.822"/>
		<g>
			<path style="fill:#333E48;" d="M52.954,250.004c-1.766-1.246-3.012-3.531-3.012-6.023c0-4.154,3.323-7.374,7.478-7.374
				c2.076,0,3.53,0.727,4.569,1.454c5.504,4.05,11.527,6.542,18.589,6.542c6.543,0,10.489-2.596,10.489-6.854v-0.208
				c0-4.05-2.492-6.127-14.643-9.243c-14.644-3.738-24.094-7.789-24.094-22.224v-0.208c0-13.189,10.593-21.913,25.443-21.913
				c8.827,0,16.513,2.285,23.055,6.438c1.766,1.039,3.531,3.22,3.531,6.335c0,4.154-3.323,7.373-7.478,7.373
				c-1.558,0-2.804-0.415-4.05-1.142c-5.297-3.116-10.281-4.881-15.267-4.881c-6.127,0-9.347,2.804-9.347,6.335v0.208
				c0,4.777,3.116,6.335,15.682,9.554c14.747,3.842,23.056,9.139,23.056,21.809v0.208c0,14.435-11.009,22.536-26.69,22.536
				C70.713,258.728,61.055,255.82,52.954,250.004z"/>
		</g>
	</g>
	<g>
		<circle style="fill:#B3874F;" cx="264.592" cy="112.781" r="64.195"/>
		<path style="fill:#997443;" d="M328.633,108.538H200.551c-0.091,1.404-0.154,2.815-0.154,4.243
			c0,35.454,28.741,64.195,64.195,64.195s64.195-28.741,64.195-64.195C328.787,111.354,328.725,109.942,328.633,108.538z"/>
		<polygon style="fill:#8CD5EF;" points="240.787,296.278 193.177,296.278 201.94,151.149 243.708,151.149 		"/>
		<polygon style="fill:#00B3E3;" points="288.397,296.278 240.787,296.278 243.708,151.149 285.475,151.149 		"/>
		<polygon style="fill:#8CD5EF;" points="336.007,296.278 288.397,296.278 285.475,151.149 327.243,151.149 		"/>
		<path style="fill:#B3874F;" d="M327.243,151.149c9.732,0,17.62-7.889,17.62-17.62s-7.889-17.62-17.62-17.62H201.94
			c-9.732,0-17.62,7.889-17.62,17.62s7.889,17.62,17.62,17.62H327.243z"/>
		<circle style="fill:#FFFFFF;" cx="248.524" cy="61.855" r="3.822"/>
		<circle style="fill:#FFFFFF;" cx="280.66" cy="61.855" r="3.822"/>
		<circle style="fill:#FFFFFF;" cx="264.592" cy="59.398" r="3.822"/>
		<g>
			<path style="fill:#5A3C3D;" d="M234.591,192.99c0-4.466,3.531-7.997,7.997-7.997h21.704c17.344,0,27.833,10.281,27.833,25.132
				v0.208c0,16.824-13.086,25.548-29.391,25.548h-12.15v14.435c0,4.466-3.531,7.997-7.996,7.997c-4.466,0-7.997-3.531-7.997-7.997
				L234.591,192.99L234.591,192.99z M263.254,221.653c7.996,0,12.67-4.777,12.67-11.008v-0.208c0-7.166-4.985-11.008-12.982-11.008
				h-12.358v22.224L263.254,221.653L263.254,221.653z"/>
		</g>
	</g>
</g>
<g>
</g>
<g>
</g>
<g>
</g>
<g>
</g>
<g>
</g>
<g>
</g>
<g>
</g>
<g>
</g>
<g>
</g>
<g>
</g>
<g>
</g>
<g>
</g>
<g>
</g>
<g>
</g>
<g>
</g>
</svg>
