<?xml version="1.0" encoding="iso-8859-1"?>
<!-- Generator: Adobe Illustrator 19.0.0, SVG Export Plug-In . SVG Version: 6.00 Build 0)  -->
<svg version="1.1" id="Layer_1" xmlns="http://www.w3.org/2000/svg" xmlns:xlink="http://www.w3.org/1999/xlink" x="0px" y="0px"
	 viewBox="0 0 355.276 355.276" style="enable-background:new 0 0 355.276 355.276;" xml:space="preserve">
<g>
	<g>
		<path style="fill:#5C6670;" d="M268.423,172.477l64.18-71c4.82-5.333,13.052-5.748,18.385-0.928
			c5.333,4.821,5.748,13.052,0.928,18.385c-0.293,0.324-0.611,0.641-0.928,0.928l-71,64.18c-3.354,3.032-8.532,2.771-11.564-0.583
			C265.586,180.319,265.658,175.557,268.423,172.477z"/>
		<path style="fill:#333E48;" d="M290.428,148.134l-22.005,24.343c-2.765,3.08-2.837,7.843,0,10.981
			c3.032,3.354,8.21,3.615,11.564,0.583l39.724-35.907H290.428z"/>
	</g>
	<g>
		<path style="fill:#D1D3D3;" d="M122.495,141.193c-0.722,0-1.455-0.172-2.137-0.534c-2.228-1.183-3.074-3.946-1.892-6.174
			c8.656-16.299,4.792-24.16,0.317-33.262c-4.633-9.429-9.885-20.115-0.344-38.648c1.154-2.241,3.908-3.124,6.148-1.97
			c2.242,1.155,3.123,3.908,1.97,6.149c-7.438,14.449-3.97,21.506,0.42,30.44c4.873,9.914,10.398,21.151-0.446,41.572
			C125.712,140.312,124.13,141.193,122.495,141.193z"/>
		<path style="fill:#D1D3D3;" d="M161.342,141.193c-0.722,0-1.455-0.172-2.137-0.534c-2.228-1.183-3.074-3.946-1.892-6.174
			c8.656-16.299,4.792-24.16,0.317-33.262c-4.633-9.429-9.885-20.115-0.344-38.648c1.154-2.241,3.908-3.124,6.148-1.97
			c2.242,1.155,3.123,3.908,1.97,6.149c-7.439,14.449-3.97,21.506,0.42,30.44c4.873,9.914,10.398,21.151-0.446,41.572
			C164.559,140.312,162.977,141.193,161.342,141.193z"/>
		<path style="fill:#D1D3D3;" d="M200.189,141.193c-0.722,0-1.455-0.172-2.137-0.534c-2.228-1.183-3.074-3.946-1.892-6.174
			c8.656-16.299,4.792-24.16,0.317-33.262c-4.633-9.429-9.885-20.115-0.344-38.648c1.154-2.241,3.908-3.124,6.148-1.97
			c2.242,1.155,3.123,3.908,1.97,6.149c-7.438,14.449-3.97,21.506,0.42,30.44c4.873,9.914,10.397,21.151-0.446,41.572
			C203.405,140.312,201.823,141.193,200.189,141.193z"/>
	</g>
	<path style="fill:#E94F3D;" d="M323.59,155.873c0,76.936-62.369,139.305-139.305,139.305h-44.98
		C62.369,295.178,0,232.809,0,155.873H323.59z"/>
	<path style="fill:#FFFFFF;" d="M308.151,201.499c-4.643,8.041-10.485,12.469-16.454,12.469c-5.969,0-11.812-4.428-16.454-12.469
		c-9.278-16.069-20.803-18.469-26.847-18.469s-17.568,2.399-26.847,18.469c-4.643,8.041-10.485,12.469-16.454,12.469
		s-11.812-4.428-16.454-12.469c-9.278-16.069-20.803-18.469-26.847-18.469s-17.568,2.399-26.847,18.469
		c-4.643,8.041-10.485,12.469-16.454,12.469s-11.812-4.428-16.454-12.469c-9.278-16.069-20.803-18.469-26.847-18.469
		s-17.568,2.399-26.847,18.469c-4.643,8.041-10.485,12.469-16.454,12.469s-11.811-4.428-16.454-12.469
		c-3.702-6.412-7.762-10.644-11.689-13.418c2.013,10.869,6.575,22.807,11.939,32.063c6.293,4.846,12.357,5.823,16.203,5.823
		c6.044,0,17.568-2.399,26.847-18.469c4.643-8.041,10.486-12.469,16.454-12.469c5.969,0,11.812,4.428,16.454,12.469
		c9.278,16.069,20.803,18.469,26.847,18.469s17.568-2.399,26.847-18.469c4.643-8.041,10.485-12.469,16.454-12.469
		s11.812,4.428,16.454,12.469c9.278,16.069,20.803,18.469,26.847,18.469s17.568-2.399,26.847-18.469
		c4.643-8.041,10.485-12.469,16.454-12.469c5.968,0,11.812,4.428,16.454,12.469c9.278,16.069,20.803,18.469,26.847,18.469
		c3.846,0,9.91-0.978,16.203-5.823c5.425-9.444,9.321-20.465,11.939-32.063C315.914,190.856,311.853,195.087,308.151,201.499z"/>
	<path style="fill:#FEDD3D;" d="M275.243,249.456c-9.278-16.069-20.803-18.469-26.847-18.469s-17.568,2.399-26.847,18.469
		c-4.643,8.041-10.485,12.469-16.454,12.469s-11.812-4.428-16.454-12.469c-9.278-16.069-20.803-18.469-26.847-18.469
		s-17.568,2.399-26.847,18.469c-4.643,8.041-10.485,12.469-16.454,12.469s-11.812-4.428-16.454-12.469
		c-9.278-16.069-20.803-18.469-26.847-18.469s-17.568,2.399-26.847,18.469c-1.635,2.832-3.421,5.205-5.308,7.105
		c2.898,2.772,5.921,5.413,9.049,7.929c2.273-2.385,4.522-5.346,6.651-9.034c4.643-8.041,10.486-12.469,16.454-12.469
		c5.969,0,11.812,4.428,16.454,12.469c9.278,16.069,20.803,18.469,26.847,18.469s17.568-2.399,26.847-18.469
		c4.643-8.041,10.485-12.469,16.454-12.469s11.812,4.428,16.454,12.469c9.278,16.069,20.803,18.469,26.847,18.469
		s17.568-2.399,26.847-18.469c4.643-8.041,10.485-12.469,16.454-12.469c5.968,0,11.812,4.428,16.454,12.469
		c2.13,3.688,4.378,6.649,6.651,9.034c3.128-2.516,6.15-5.157,9.049-7.929C278.664,254.661,276.879,252.288,275.243,249.456z"/>
</g>
<g>
</g>
<g>
</g>
<g>
</g>
<g>
</g>
<g>
</g>
<g>
</g>
<g>
</g>
<g>
</g>
<g>
</g>
<g>
</g>
<g>
</g>
<g>
</g>
<g>
</g>
<g>
</g>
<g>
</g>
</svg>
