<?xml version="1.0" encoding="iso-8859-1"?>
<!-- Generator: Adobe Illustrator 19.0.0, SVG Export Plug-In . SVG Version: 6.00 Build 0)  -->
<svg version="1.1" id="Layer_1" xmlns="http://www.w3.org/2000/svg" xmlns:xlink="http://www.w3.org/1999/xlink" x="0px" y="0px"
	 viewBox="0 0 291.583 291.583" style="enable-background:new 0 0 291.583 291.583;" xml:space="preserve">
<g>
	<path style="fill:#D1D3D3;" d="M106.082,171.458L252.656,7.441c8.209-9.184,22.305-9.975,31.486-1.769
		c9.183,8.206,9.973,22.302,1.768,31.484c-0.558,0.624-1.159,1.222-1.769,1.768L120.124,185.501
		c-4.096,3.66-10.383,3.308-14.042-0.789C102.672,180.898,102.746,175.182,106.082,171.458z"/>
	<g>
		<path style="fill:#C3C6C8;" d="M270.96,20.623c0.424,0.424,0.425,1.11-0.001,1.536l-133.17,133.17
			c-0.424,0.424-1.111,0.424-1.535,0c-0.424-0.424-0.425-1.111,0-1.536l133.17-133.17C269.848,20.199,270.535,20.199,270.96,20.623z
			"/>
		<path style="fill:#C3C6C8;" d="M278.4,28.064c0.008,0.008,0.016,0.016,0.021,0.021c0.413,0.437,0.394,1.124-0.043,1.537
			l-136.89,129.45c-0.436,0.41-1.128,0.395-1.535-0.043c-0.412-0.436-0.393-1.123,0.043-1.536L276.887,28.044
			C277.314,27.638,277.986,27.65,278.4,28.064z"/>
		<path style="fill:#C3C6C8;" d="M263.518,13.182c0.414,0.414,0.425,1.085,0.022,1.515l-129.45,136.89
			c-0.412,0.436-1.1,0.455-1.535,0.043c-0.421-0.441-0.454-1.1-0.043-1.535L261.96,13.203c0.413-0.436,1.101-0.456,1.536-0.044
			C263.504,13.167,263.512,13.175,263.518,13.182z"/>
	</g>
	<path style="fill:#D1D3D3;" d="M40.658,165.241c-23.661,23.661-56.072,94.433-32.41,118.095
		c23.662,23.66,94.434-8.75,118.094-32.41c23.662-23.662,23.662-62.023,0.001-85.685C102.68,141.578,64.319,141.579,40.658,165.241z
		"/>
	<path style="fill:#C3C6C8;" d="M114.824,176.759c17.271,17.271,17.271,45.375,0,62.646c-9.03,9.03-30.072,22.256-52.816,30.062
		c-22.932,7.869-37.739,6.85-42.24,2.348c-4.503-4.502-5.523-19.309,2.348-42.24c7.806-22.745,21.031-43.785,30.061-52.816
		C69.449,159.488,97.551,159.488,114.824,176.759z"/>
</g>
<g>
</g>
<g>
</g>
<g>
</g>
<g>
</g>
<g>
</g>
<g>
</g>
<g>
</g>
<g>
</g>
<g>
</g>
<g>
</g>
<g>
</g>
<g>
</g>
<g>
</g>
<g>
</g>
<g>
</g>
</svg>
