<?xml version="1.0" encoding="iso-8859-1"?>
<!-- Generator: Adobe Illustrator 19.0.0, SVG Export Plug-In . SVG Version: 6.00 Build 0)  -->
<svg version="1.1" id="Layer_1" xmlns="http://www.w3.org/2000/svg" xmlns:xlink="http://www.w3.org/1999/xlink" x="0px" y="0px"
	 viewBox="0 0 331.826 331.826" style="enable-background:new 0 0 331.826 331.826;" xml:space="preserve">
<g>
	<g>
		<rect x="147.365" y="155.43" style="fill:#8CD5EF;" width="37.096" height="152.285"/>
		<rect x="147.365" y="295.349" style="fill:#00B3E3;" width="37.096" height="12.365"/>
		<path style="fill:#00B3E3;" d="M147.365,155.43v33.122c6.039,0.982,12.232,1.501,18.548,1.501c6.315,0,12.509-0.519,18.548-1.501
			V155.43H147.365z"/>
	</g>
	<path style="fill:#8CD5EF;" d="M209.036,331.826c7.426,0,13.447-6.021,13.447-13.447s-6.021-13.447-13.447-13.447h-86.247
		c-7.426,0-13.447,6.021-13.447,13.447s6.021,13.447,13.447,13.447H209.036z"/>
	<path style="fill:#8CD5EF;" d="M264.524,75.365c0,54.462-44.15,98.612-98.612,98.612S67.3,129.827,67.3,75.365V0h197.225v75.365
		H264.524z"/>
	<path style="fill:#712D3D;" d="M81.521,75.365c0,46.609,37.783,84.392,84.392,84.392c46.608,0,84.392-37.783,84.392-84.392
		C250.304,75.365,81.521,75.365,81.521,75.365z"/>
</g>
<g>
</g>
<g>
</g>
<g>
</g>
<g>
</g>
<g>
</g>
<g>
</g>
<g>
</g>
<g>
</g>
<g>
</g>
<g>
</g>
<g>
</g>
<g>
</g>
<g>
</g>
<g>
</g>
<g>
</g>
</svg>
