<?xml version="1.0" encoding="iso-8859-1"?>
<!-- Generator: Adobe Illustrator 19.0.0, SVG Export Plug-In . SVG Version: 6.00 Build 0)  -->
<svg version="1.1" id="Layer_1" xmlns="http://www.w3.org/2000/svg" xmlns:xlink="http://www.w3.org/1999/xlink" x="0px" y="0px"
	 viewBox="0 0 385.033 385.033" style="enable-background:new 0 0 385.033 385.033;" xml:space="preserve">
<g>
	<g>
		<path style="fill:#B3874F;" d="M215.334,9.127c0-5.021-4.107-9.127-9.128-9.127h-27.379c-5.021,0-9.128,4.106-9.128,9.127v13.69
			c0,5.02,4.107,9.127,9.128,9.127h27.379c5.02,0,9.128-4.107,9.128-9.127V9.127z"/>
		<rect x="169.699" y="11.3" style="fill:#997443;" width="45.635" height="10.099"/>
	</g>
	<path style="fill:#00783E;" d="M241.591,385.033c8.301,0,15.031-6.729,15.031-15.031c0,0,0-61.752,0-159.931
		S217.86,134.404,217.86,89.856c0.001,0,0.001-27.164,0.001-27.164h-50.689v27.164c0,44.548-38.761,22.036-38.761,120.215
		s0,159.931,0,159.931c0,8.303,6.73,15.031,15.031,15.031L241.591,385.033L241.591,385.033z"/>
	<rect x="167.172" y="17.776" style="fill:#D9A460;" width="50.689" height="39.483"/>
	<rect x="167.172" y="57.26" style="fill:#FEDD3D;" width="50.689" height="21.726"/>
	<path style="fill:#712D3D;" d="M238.154,175.686h-91.275c-1.362,9.075-2.17,20.274-2.17,34.385v158.664h95.615V210.071
		C240.324,195.96,239.517,184.762,238.154,175.686z"/>
	<rect x="161.747" y="200.499" style="fill:#FFFFFF;" width="61.537" height="143.424"/>
</g>
<g>
</g>
<g>
</g>
<g>
</g>
<g>
</g>
<g>
</g>
<g>
</g>
<g>
</g>
<g>
</g>
<g>
</g>
<g>
</g>
<g>
</g>
<g>
</g>
<g>
</g>
<g>
</g>
<g>
</g>
</svg>
